<?xml version="1.0" encoding="UTF-8" standalone="no"?>
<!-- Created with Inkscape (http://www.inkscape.org/) -->

<svg
   width="57.875481mm"
   height="79.375mm"
   viewBox="0 0 57.875481 79.375"
   version="1.1"
   id="svg1162"
   inkscape:version="1.1 (c68e22c387, 2021-05-23)"
   sodipodi:docname="flashlight.svg"
   xmlns:inkscape="http://www.inkscape.org/namespaces/inkscape"
   xmlns:sodipodi="http://sodipodi.sourceforge.net/DTD/sodipodi-0.dtd"
   xmlns="http://www.w3.org/2000/svg"
   xmlns:svg="http://www.w3.org/2000/svg">
  <sodipodi:namedview
     id="namedview1164"
     pagecolor="#ffffff"
     bordercolor="#666666"
     borderopacity="1.0"
     inkscape:pageshadow="2"
     inkscape:pageopacity="0.0"
     inkscape:pagecheckerboard="0"
     inkscape:document-units="mm"
     showgrid="false"
     inkscape:zoom="0.74118967"
     inkscape:cx="309.63734"
     inkscape:cy="143.68792"
     inkscape:window-width="1920"
     inkscape:window-height="1017"
     inkscape:window-x="-8"
     inkscape:window-y="-8"
     inkscape:window-maximized="1"
     inkscape:current-layer="layer1" />
  <defs
     id="defs1159" />
  <g
     inkscape:label="Layer 1"
     inkscape:groupmode="layer"
     id="layer1"
     transform="translate(-23.326173,-110.60943)">
    <g
       id="g1135"
       transform="matrix(1.0189345,0,0,1.0189345,1.317188,106.02422)"
       style="fill:#0066ff;fill-opacity:1"
       inkscape:export-filename="D:\UPRI-NOAH\noah-frontend\src\assets\images\survival-kit\blanket.png"
       inkscape:export-xdpi="370.14053"
       inkscape:export-ydpi="370.14053">
      <g
         id="g1133"
         style="fill:#0066ff;fill-opacity:1">
        <g
           id="g1131"
           style="fill:#0066ff;fill-opacity:1">
          <g
             id="g1129"
             style="fill:#0066ff;fill-opacity:1">
            <path
               d="M 64.3,36.1 C 63,35.3 61.6,35 60.2,35 c -2.8,0 -5.5,1.6 -7.1,4.1 4.9,-0.4 8.5,-1.5 11.2,-3 z M 34.4,35.5 c 3.1,2.1 8,3.7 15.5,3.7 0,0 0.1,0 0.1,0 0,0 0.1,0 0.2,0 0.7,-1.4 1.5,-2.6 2.6,-3.6 -2.4,-3 -5.7,-4.7 -9.2,-4.7 -3.6,0 -6.9,1.7 -9.2,4.6 z m 9.1,-21.9 c -4.1,0 -7.4,3.3 -7.4,7.4 0,4.1 3.3,7.4 7.4,7.4 4.1,0 7.4,-3.3 7.4,-7.4 0,-4.1 -3.3,-7.4 -7.4,-7.4 z M 50,46.1 C 73.8,46 75.8,34.2 75.8,34.1 h 0.1 V 32 c 0,-1.5 -1,-2.8 -2.4,-3.2 -0.4,1.4 -1.3,3.7 -3.4,6 -2.9,3.2 -8.7,6.9 -20,7 0,0 -0.1,0 -0.1,0 -18.3,0 -22.4,-9.4 -23.3,-12.9 -1.4,0.4 -2.4,1.7 -2.4,3.2 v 2.3 c 0.1,0.9 1.9,11.9 25.6,11.9 0,-0.2 0,-0.2 0.1,-0.2 z M 60.2,32.5 c 2.4,0 4.3,-1.9 4.3,-4.3 0,-2.4 -1.9,-4.3 -4.3,-4.3 -2.4,0 -4.3,1.9 -4.3,4.3 0,2.4 1.9,4.3 4.3,4.3 z M 33.6,21 c 0,-5.5 4.5,-9.9 9.9,-9.9 5.5,0 9.9,4.5 9.9,9.9 0,3.6 -1.9,6.7 -4.7,8.4 2.3,0.9 4.3,2.5 6,4.6 0.4,-0.2 0.8,-0.5 1.2,-0.7 -1.5,-1.2 -2.5,-3.2 -2.5,-5.3 0,-3.8 3.1,-6.8 6.8,-6.8 3.7,0 6.8,3.1 6.8,6.8 0,2.1 -1,4 -2.5,5.3 0.7,0.3 1.3,0.7 2,1.2 3.1,-2.5 4.2,-5.3 4.5,-6.6 V 10.4 C 71,8.5 69.3,7 67.2,7 H 32.7 c -2.1,0 -3.8,1.5 -3.8,3.4 v 17.8 c 0.3,1.2 1.1,3.6 3.5,5.8 1.6,-2.1 3.7,-3.6 5.9,-4.5 -2.8,-1.8 -4.7,-4.9 -4.7,-8.5 z m 40,5.2 c 2.7,0.5 4.8,2.9 4.8,5.8 v 44.5 c 0,3.2 -2.6,5.9 -5.9,5.9 h -45 c -3.2,0 -5.9,-2.6 -5.9,-5.9 V 32 c 0,-2.9 2,-5.2 4.8,-5.8 V 10.4 c 0,-3.3 2.8,-5.9 6.3,-5.9 h 34.6 c 3.5,0 6.3,2.7 6.3,5.9 z"
               id="path1127"
               style="fill:#0066ff;fill-opacity:1" />
          </g>
        </g>
      </g>
    </g>
  </g>
</svg>
