<?xml version="1.0" encoding="UTF-8" standalone="no"?>
<!-- Created with Inkscape (http://www.inkscape.org/) -->

<svg
   width="64.417778mm"
   height="79.375mm"
   viewBox="0 0 64.417778 79.375001"
   version="1.1"
   id="svg1162"
   inkscape:version="1.1 (c68e22c387, 2021-05-23)"
   sodipodi:docname="flashlight.svg"
   xmlns:inkscape="http://www.inkscape.org/namespaces/inkscape"
   xmlns:sodipodi="http://sodipodi.sourceforge.net/DTD/sodipodi-0.dtd"
   xmlns="http://www.w3.org/2000/svg"
   xmlns:svg="http://www.w3.org/2000/svg">
  <sodipodi:namedview
     id="namedview1164"
     pagecolor="#ffffff"
     bordercolor="#666666"
     borderopacity="1.0"
     inkscape:pageshadow="2"
     inkscape:pageopacity="0.0"
     inkscape:pagecheckerboard="0"
     inkscape:document-units="mm"
     showgrid="false"
     inkscape:zoom="0.74118967"
     inkscape:cx="348.76363"
     inkscape:cy="-8.769685"
     inkscape:window-width="1920"
     inkscape:window-height="1017"
     inkscape:window-x="-8"
     inkscape:window-y="-8"
     inkscape:window-maximized="1"
     inkscape:current-layer="layer1" />
  <defs
     id="defs1159" />
  <g
     inkscape:label="Layer 1"
     inkscape:groupmode="layer"
     id="layer1"
     transform="translate(-245.99042,-276.20766)">
    <g
       id="g2625"
       transform="matrix(1.2402344,0,0,1.2402344,228.58993,266.28578)"
       style="clip-rule:evenodd;fill:#0066ff;fill-opacity:1;fill-rule:evenodd;image-rendering:optimizeQuality;shape-rendering:geometricPrecision;text-rendering:geometricPrecision"
       inkscape:export-filename="D:\UPRI-NOAH\noah-frontend\src\assets\images\survival-kit\family.png"
       inkscape:export-xdpi="449.13412"
       inkscape:export-ydpi="449.13412">
      <path
         class="fil0"
         d="m 22.861,8 h 38.172 c 2.716,0 4.937,2.222 4.937,4.938 V 67.062 C 65.97,69.778 63.749,72 61.033,72 H 22.861 c -2.716,0 -4.938,-2.222 -4.938,-4.938 v -1.261 h 3.527 c 1.077,0 1.953,-0.876 1.953,-1.953 v -3.256 c 0,-1.077 -0.876,-1.954 -1.953,-1.954 h -3.527 v -3.71 h 3.527 c 1.077,0 1.953,-0.876 1.953,-1.953 v -3.256 c 0,-1.077 -0.876,-1.953 -1.953,-1.953 h -3.527 v -3.71 h 3.527 c 1.077,0 1.953,-0.876 1.953,-1.953 v -3.256 c 0,-1.077 -0.876,-1.953 -1.953,-1.953 h -3.527 v -3.71 h 3.527 c 1.077,0 1.953,-0.876 1.953,-1.953 v -3.256 c 0,-1.077 -0.876,-1.953 -1.953,-1.953 h -3.527 v -3.711 h 3.527 c 1.077,0 1.953,-0.876 1.953,-1.953 v -3.256 c 0,-1.077 -0.876,-1.953 -1.953,-1.953 H 17.923 V 12.938 C 17.923,10.222 20.145,8 22.861,8 Z m -8.18,8.451 h 6.769 c 0.359,0 0.651,0.293 0.651,0.651 v 3.256 c 0,0.358 -0.292,0.651 -0.651,0.651 h -6.769 c -0.359,0 -0.651,-0.293 -0.651,-0.651 v -3.256 c 0,-0.358 0.292,-0.651 0.651,-0.651 z m 0,43.49 h 6.769 c 0.359,0 0.651,0.292 0.651,0.651 v 3.256 c 0,0.358 -0.292,0.65 -0.651,0.65 h -6.769 c -0.359,0 -0.651,-0.292 -0.651,-0.65 v -3.256 c 0,-0.359 0.292,-0.651 0.651,-0.651 z m 0,-10.873 h 6.769 c 0.359,0 0.651,0.293 0.651,0.651 v 3.256 c 0,0.359 -0.292,0.651 -0.651,0.651 h -6.769 c -0.359,0 -0.651,-0.292 -0.651,-0.651 v -3.256 c 0,-0.358 0.292,-0.651 0.651,-0.651 z m 0,-10.872 h 6.769 c 0.359,0 0.651,0.293 0.651,0.651 v 3.256 c 0,0.358 -0.292,0.651 -0.651,0.651 h -6.769 c -0.359,0 -0.651,-0.293 -0.651,-0.651 v -3.256 c 0,-0.358 0.292,-0.651 0.651,-0.651 z m 0,-10.872 h 6.769 c 0.359,0 0.651,0.292 0.651,0.651 v 3.256 c 0,0.358 -0.292,0.651 -0.651,0.651 h -6.769 c -0.359,0 -0.651,-0.293 -0.651,-0.651 v -3.256 c 0,-0.359 0.292,-0.651 0.651,-0.651 z m 17.217,18.253 c -0.308,1.141 -0.526,2.853 -0.723,4.575 -0.099,0.864 0.505,1.651 1.365,1.78 3.006,0.449 6.921,0.826 9.591,0.826 l 0.449,-8.26 c -0.322,-0.894 -0.506,-0.456 -1.032,-1.289 -0.247,0.216 -0.495,0.432 -0.721,0.755 -0.225,0.324 -0.428,0.755 -0.631,1.187 -0.045,-0.727 -0.09,-1.453 -0.214,-2.322 -0.124,-0.869 -0.326,-1.879 -0.529,-2.89 -0.496,0.443 -0.992,0.886 -1.831,1.317 -0.84,0.432 -3.037,0.852 -3.904,1.454 -0.868,0.601 -1.42,1.385 -1.82,2.867 z m 6.967,-13.235 c -0.047,0.012 -0.102,-0.008 -0.207,0.025 -0.105,0.033 -0.255,0.16 -0.312,0.32 -0.056,0.159 -0.06,0.364 -0.042,0.604 0.018,0.24 0.058,0.515 0.125,0.827 0.066,0.312 0.158,0.66 0.241,0.893 0.082,0.233 0.154,0.35 0.263,0.44 0.109,0.088 0.253,0.149 0.426,0.202 l 0.012,0.004 0.057,0.874 c 0.033,0.514 0.221,0.946 0.575,1.318 l 0.192,0.202 v 1.559 c 0,0.277 0.117,0.516 0.335,0.684 l 2.438,1.886 2.439,-1.886 c 0.218,-0.168 0.335,-0.407 0.335,-0.684 v -1.523 l 0.225,-0.24 c 0.349,-0.372 0.534,-0.8 0.567,-1.31 l 0.055,-0.844 c 0.034,-0.008 0.067,-0.018 0.1,-0.028 0.173,-0.052 0.317,-0.113 0.426,-0.202 0.108,-0.09 0.181,-0.207 0.263,-0.405 0.082,-0.199 0.174,-0.478 0.24,-0.756 0.066,-0.277 0.107,-0.553 0.131,-0.829 0.024,-0.277 0.032,-0.554 -0.033,-0.743 -0.064,-0.19 -0.2,-0.291 -0.35,-0.348 -0.071,-0.026 -0.144,-0.043 -0.223,-0.048 l 0.004,-0.027 c 0.028,-0.027 0.056,-0.057 0.083,-0.09 0.309,-0.367 0.615,-1.071 0.681,-1.891 0.067,-0.82 -0.107,-1.755 -0.39,-2.218 -0.283,-0.462 -0.676,-0.452 -1.069,-0.442 -0.122,-0.54 -0.245,-1.08 -0.75,-1.514 -0.505,-0.434 -1.392,-0.763 -2.254,-0.804 -0.862,-0.041 -1.698,0.206 -2.443,0.647 -0.582,0.346 -1.108,0.811 -1.524,1.112 -1.105,0.802 -1.606,2.099 -1.327,3.435 0.138,0.664 0.371,1.294 0.653,1.668 0.01,0.013 0.02,0.026 0.031,0.038 l 10e-4,0.032 c 0.002,0.023 0.072,0.05 0.026,0.062 z m 4.889,12.142 0.6,8.274 c 2.699,0 6.462,-0.214 9.517,-0.766 0.838,-0.152 1.413,-0.925 1.316,-1.772 -0.199,-1.745 -0.418,-3.487 -0.731,-4.643 -0.4,-1.482 -0.952,-2.266 -1.819,-2.867 -0.868,-0.602 -3.065,-1.022 -3.904,-1.454 -0.84,-0.431 -1.335,-0.874 -1.831,-1.317 -0.203,1.011 -0.406,2.021 -0.53,2.89 -0.124,0.869 -0.169,1.595 -0.214,2.322 -0.203,-0.432 -0.405,-0.863 -0.631,-1.187 -0.225,-0.323 -0.473,-0.539 -0.721,-0.755 -0.504,0.798 -0.688,0.432 -1.052,1.275 z"
         id="path2623"
         style="fill:#0066ff;fill-opacity:1" />
    </g>
  </g>
</svg>
