<?xml version="1.0" encoding="UTF-8" standalone="no"?>
<!-- Created with Inkscape (http://www.inkscape.org/) -->

<svg
   width="87.942856mm"
   height="79.375mm"
   viewBox="0 0 87.942856 79.375"
   version="1.1"
   id="svg1162"
   inkscape:version="1.1 (c68e22c387, 2021-05-23)"
   sodipodi:docname="flashlight.svg"
   xmlns:inkscape="http://www.inkscape.org/namespaces/inkscape"
   xmlns:sodipodi="http://sodipodi.sourceforge.net/DTD/sodipodi-0.dtd"
   xmlns="http://www.w3.org/2000/svg"
   xmlns:svg="http://www.w3.org/2000/svg">
  <sodipodi:namedview
     id="namedview1164"
     pagecolor="#ffffff"
     bordercolor="#666666"
     borderopacity="1.0"
     inkscape:pageshadow="2"
     inkscape:pageopacity="0.0"
     inkscape:pagecheckerboard="0"
     inkscape:document-units="mm"
     showgrid="false"
     inkscape:zoom="0.74118967"
     inkscape:cx="-131.54528"
     inkscape:cy="77.577983"
     inkscape:window-width="1920"
     inkscape:window-height="1017"
     inkscape:window-x="-8"
     inkscape:window-y="-8"
     inkscape:window-maximized="1"
     inkscape:current-layer="layer1" />
  <defs
     id="defs1159" />
  <g
     inkscape:label="Layer 1"
     inkscape:groupmode="layer"
     id="layer1"
     transform="translate(-140.07351,-128.05437)">
    <g
       id="g1728"
       transform="matrix(5.3610059,0,0,5.3610059,-865.38674,-1044.5317)">
      <path
         d="m 196.53672,229.01545 v -0.93186 h 0.93186 c 0.12621,0 0.24289,-0.0397 0.33787,-0.10822 0.15029,-0.10583 0.24898,-0.28125 0.24898,-0.47969 v -0.39185 c 0,-0.32464 -0.26327,-0.5879 -0.58685,-0.5879 h -0.93186 v -0.93186 c 0,-0.32465 -0.26326,-0.58685 -0.58791,-0.58685 h -0.39185 c -0.32464,0 -0.5879,0.2622 -0.5879,0.58685 v 0.93186 h -0.93186 c -0.32465,0 -0.58685,0.26326 -0.58685,0.5879 v 0.39185 c 0,0.19844 0.0987,0.37386 0.24898,0.47969 0.095,0.0685 0.21166,0.10822 0.33787,0.10822 h 0.93186 v 0.93186 c 0,0.32464 0.26326,0.58684 0.5879,0.58684 h 0.39185 c 0.32465,0 0.58791,-0.2622 0.58791,-0.58684 z"
         id="path1675"
         style="fill:#0066ff;fill-opacity:1;stroke-width:0.264583" />
      <path
         d="m 191.12705,231.49301 h 9.25142 v -8.33173 h -9.25142 z m 4.62571,-7.47263 c 1.81107,0 3.27924,1.46817 3.27924,3.27925 0,1.81107 -1.46817,3.27951 -3.27924,3.27951 -1.81108,0 -3.27925,-1.46818 -3.27925,-3.27925 0,-1.81107 1.46817,-3.27951 3.27925,-3.27951 z"
         id="path1677"
         style="fill:#0066ff;fill-opacity:1;stroke-width:0.264583" />
      <path
         d="m 203.95484,222.30323 v -0.29289 -0.70591 c 0,-0.33179 -0.26882,-0.6006 -0.6006,-0.6006 h -1.09168 c 0,-0.30401 -0.24659,-0.5506 -0.55059,-0.5506 h -0.66226 c -0.304,0 -0.55059,0.24659 -0.55059,0.5506 h -1.29964 v -0.55298 c 0,-0.7874 -0.63844,-1.42584 -1.42584,-1.42584 h -4.04177 c -0.7874,0 -1.42584,0.63844 -1.42584,1.42584 v 0.55298 h -1.29963 c 0,-0.30401 -0.2466,-0.5506 -0.5506,-0.5506 h -0.66199 c -0.30401,0 -0.5506,0.24659 -0.5506,0.5506 h -1.09193 c -0.33179,0 -0.60061,0.26881 -0.60061,0.6006 v 0.9988 z m -10.53095,-2.15238 c 0,-0.16986 0.13812,-0.30798 0.30798,-0.30798 h 4.04177 c 0.16987,0 0.30798,0.13812 0.30798,0.30798 v 0.55298 h -4.65773 z"
         id="path1679"
         style="fill:#0066ff;fill-opacity:1;stroke-width:0.264583" />
      <polygon
         points="63,52.071 63,24.785 63,20.788 52.747,20.788 52.747,52.071 "
         id="polygon1681"
         style="fill:#0066ff;fill-opacity:1"
         transform="matrix(0.26458333,0,0,0.26458333,187.28609,217.66112)" />
      <path
         d="m 202.09482,232.29628 v 0.006 h -12.67328 v -0.006 h -1.87087 v 0.006 0.17621 0.32253 c 0,0.40322 0.32676,0.72998 0.72999,0.72998 h 14.94419 c 0.40323,0 0.72999,-0.32676 0.72999,-0.72998 v -0.22252 -0.10001 -0.17621 -0.006 z"
         id="path1683"
         style="fill:#0066ff;fill-opacity:1;stroke-width:0.264583" />
      <rect
         x="187.55067"
         y="223.16129"
         width="2.7127728"
         height="8.2769604"
         id="rect1685"
         style="fill:#0066ff;fill-opacity:1;stroke-width:0.264583" />
    </g>
  </g>
</svg>
