<?xml version="1.0" encoding="UTF-8" standalone="no"?>
<!-- Created with Inkscape (http://www.inkscape.org/) -->

<svg
   width="180.12845mm"
   height="79.375mm"
   viewBox="0 0 180.12845 79.375"
   version="1.1"
   id="svg955"
   inkscape:version="1.1 (c68e22c387, 2021-05-23)"
   xmlns:inkscape="http://www.inkscape.org/namespaces/inkscape"
   xmlns:sodipodi="http://sodipodi.sourceforge.net/DTD/sodipodi-0.dtd"
   xmlns="http://www.w3.org/2000/svg"
   xmlns:svg="http://www.w3.org/2000/svg">
  <sodipodi:namedview
     id="namedview957"
     pagecolor="#ffffff"
     bordercolor="#666666"
     borderopacity="1.0"
     inkscape:pageshadow="2"
     inkscape:pageopacity="0.0"
     inkscape:pagecheckerboard="0"
     inkscape:document-units="mm"
     showgrid="false"
     inkscape:zoom="0.74118967"
     inkscape:cx="162.57647"
     inkscape:cy="-82.974712"
     inkscape:window-width="1920"
     inkscape:window-height="1017"
     inkscape:window-x="-8"
     inkscape:window-y="-8"
     inkscape:window-maximized="1"
     inkscape:current-layer="layer1" />
  <defs
     id="defs952" />
  <g
     inkscape:label="Layer 1"
     inkscape:groupmode="layer"
     id="layer1"
     transform="translate(-192.96597,-148.53598)">
    <g
       id="g1135"
       transform="matrix(0.38237821,0,0,0.38237821,211.81722,148.50999)"
       style="fill:#0066ff;fill-opacity:1"
       inkscape:export-filename="D:\UPRI-Assets\NOAH Assets\HazardLevel\Flood\flood-evacuate.png"
       inkscape:export-xdpi="96"
       inkscape:export-ydpi="96">
      <g
         id="g1109"
         style="fill:#0066ff;fill-opacity:1">
        <path
           d="m 90.127,123.843 c 1.562,-0.287 3.044,-0.579 4.441,-0.874 v -0.871 c 0.578,0.152 1.17,0.311 1.782,0.482 2.455,-0.553 4.614,-1.114 6.388,-1.671 2.068,-0.639 3.262,-1.168 3.801,-1.43 0.064,-0.031 0.763,0.465 1.813,1.283 -0.007,0.004 -0.007,0.005 -0.014,0.01 -0.184,0.115 -0.496,0.299 -0.934,0.508 -0.875,0.428 -2.24,0.971 -4.074,1.541 -3.678,1.152 -9.211,2.428 -16.799,3.68 -4.359,0.721 -7.307,4.838 -6.588,9.197 0.65,3.916 4.041,6.697 7.885,6.697 0.434,0 0.873,-0.035 1.314,-0.109 8.063,-1.336 14.193,-2.703 18.963,-4.191 4.777,-1.557 8.193,-2.953 11.277,-5.699 0.24,-0.223 0.458,-0.459 0.664,-0.703 0.005,0.007 0.011,0.015 0.017,0.022 0.713,-0.758 1.388,-1.647 1.944,-2.718 0.734,-1.395 1.212,-3.141 1.205,-4.865 0.002,-1.754 -0.465,-3.387 -1.096,-4.67 -0.631,-1.293 -1.402,-2.287 -2.17,-3.109 -1.551,-1.633 -3.137,-2.678 -4.764,-3.621 -3.242,-1.834 -6.797,-3.152 -10.285,-4.289 -3.978,-1.281 -7.829,-2.251 -10.426,-2.854 -0.11,5.432 -1.541,11.446 -4.344,18.254 z"
           id="path1093"
           style="fill:#0066ff;fill-opacity:1" />
        <circle
           cx="67.523003"
           cy="26.983999"
           r="17.5"
           id="circle1095"
           style="fill:#0066ff;fill-opacity:1" />
        <path
           d="m 67.522,52.054 c 13.51,0 24.5,10.99 24.5,24.498 0,1.498 -0.143,2.963 -0.401,4.388 0.959,3.324 1.874,7.132 2.696,11.503 0.452,2.401 2.551,4.077 4.908,4.077 0.307,0 0.618,-0.029 0.931,-0.087 2.714,-0.511 4.499,-3.125 3.99,-5.839 C 100.877,73.241 96.107,63.228 91.744,57.349 87.402,51.468 83.372,49.857 82.374,49.592 82.37,49.591 82.366,49.591 82.362,49.59 81.661,49.216 80.873,48.985 80.024,48.985 h -25 c -0.851,0 -1.64,0.232 -2.341,0.607 -0.003,0.001 -0.007,0.001 -0.011,0.002 L 52.67,49.592 c -0.996,0.265 -5.028,1.877 -9.369,7.757 -4.363,5.879 -9.133,15.894 -12.4,33.247 -0.511,2.714 1.274,5.328 3.988,5.839 0.312,0.059 0.623,0.086 0.929,0.086 2.36,0.001 4.459,-1.674 4.912,-4.077 0.821,-4.373 1.737,-8.172 2.696,-11.496 C 43.167,79.521 43.024,78.054 43.024,76.553 43.022,63.044 54.012,52.054 67.522,52.054 Z"
           id="path1097"
           style="fill:#0066ff;fill-opacity:1" />
        <path
           d="m 94.568,189.519 v -4.167 -41.992 c -1.619,0.303 -3.307,0.603 -5.094,0.899 -0.541,0.09 -1.096,0.137 -1.646,0.137 -4.908,0 -9.053,-3.52 -9.859,-8.373 -0.176,-1.069 -0.168,-2.126 -0.011,-3.143 -0.462,-0.131 -0.917,-0.289 -1.361,-0.498 -2.101,-1 -3.687,-2.756 -4.465,-4.943 -0.781,-2.189 -0.662,-4.551 0.337,-6.652 4.049,-8.506 4.635,-13.547 4.625,-15.793 -0.002,-0.089 -0.009,-0.157 -0.011,-0.242 H 56.916 c -0.002,0.083 -0.01,0.155 -0.01,0.24 -0.01,2.25 0.576,7.289 4.627,15.795 0.996,2.102 1.116,4.461 0.335,6.65 -0.778,2.189 -2.364,3.943 -4.464,4.939 -0.125,0.06 -0.254,0.104 -0.381,0.157 0.215,1.123 0.251,2.298 0.055,3.49 -0.807,4.854 -4.951,8.373 -9.859,8.373 -0.553,0 -1.107,-0.047 -1.648,-0.137 -1.787,-0.296 -3.475,-0.596 -5.094,-0.899 v 41.992 4.167 z"
           id="path1099"
           style="fill:#0066ff;fill-opacity:1" />
        <path
           d="m 59.998,121.519 c -3.729,-7.834 -4.808,-13.236 -4.793,-16.533 0.008,-2.186 0.417,-3.463 0.836,-4.316 0.422,-0.835 0.923,-1.373 1.453,-1.772 -4.381,-1.974 -8.08,-5.197 -10.642,-9.216 -1.241,1.287 -2.41,2.862 -3.341,4.741 -1.468,2.927 -2.314,6.509 -2.307,10.563 0.013,5.363 1.393,11.543 4.563,19.012 0.998,0.179 2.016,0.357 3.072,0.531 3.646,0.602 6.501,3.124 7.722,6.359 0.038,-0.018 0.077,-0.029 0.114,-0.047 3.493,-1.658 4.979,-5.832 3.323,-9.322 z"
           id="path1101"
           style="fill:#0066ff;fill-opacity:1" />
        <path
           d="m 76.865,99.197 c 0.069,0.064 0.14,0.127 0.205,0.197 0.756,0.873 1.66,2.008 1.725,5.592 0.015,3.297 -1.064,8.699 -4.791,16.533 -1.659,3.49 -0.172,7.666 3.322,9.324 0.338,0.161 0.684,0.282 1.032,0.384 1.143,-3.398 4.074,-6.077 7.849,-6.699 0.663,-0.109 1.304,-0.221 1.944,-0.332 3.229,-7.56 4.63,-13.799 4.644,-19.211 0.008,-4.055 -0.84,-7.637 -2.307,-10.563 -0.782,-1.577 -1.725,-2.92 -2.734,-4.071 -2.677,3.913 -6.457,7.011 -10.889,8.846 z"
           id="path1103"
           style="fill:#0066ff;fill-opacity:1" />
        <path
           d="m 15.662,132.396 c 3.084,2.746 6.502,4.143 11.279,5.699 4.769,1.488 10.898,2.855 18.961,4.191 0.441,0.074 0.883,0.109 1.314,0.109 3.846,0 7.236,-2.781 7.887,-6.697 0.717,-4.359 -2.23,-8.477 -6.591,-9.197 -7.587,-1.252 -13.12,-2.527 -16.796,-3.68 -1.836,-0.57 -3.201,-1.113 -4.076,-1.541 -0.438,-0.209 -0.75,-0.393 -0.934,-0.508 -0.007,-0.004 -0.007,-0.005 -0.013,-0.009 1.05,-0.819 1.75,-1.315 1.814,-1.284 0.539,0.262 1.732,0.791 3.799,1.43 1.775,0.557 3.935,1.118 6.39,1.671 0.611,-0.171 1.203,-0.33 1.78,-0.482 v 0.871 c 1.061,0.224 2.158,0.447 3.315,0.667 -2.708,-6.624 -4.109,-12.49 -4.254,-17.802 -2.532,0.607 -5.914,1.49 -9.389,2.609 -3.488,1.137 -7.043,2.455 -10.285,4.289 -1.627,0.943 -3.213,1.988 -4.764,3.621 -0.77,0.822 -1.541,1.816 -2.172,3.109 -0.631,1.283 -1.096,2.916 -1.094,4.67 -0.008,1.725 0.469,3.471 1.203,4.865 0.558,1.071 1.232,1.96 1.946,2.719 0.005,-0.007 0.011,-0.015 0.016,-0.022 0.207,0.243 0.425,0.48 0.664,0.702 z"
           id="path1105"
           style="fill:#0066ff;fill-opacity:1" />
        <circle
           cx="67.522003"
           cy="76.552002"
           r="22.5"
           id="circle1107"
           style="fill:#0066ff;fill-opacity:1" />
      </g>
      <path
         d="m 8.006,203.786 c 0.805,-0.835 1.469,-1.552 2.052,-1.975 0.597,-0.424 1.001,-0.593 1.682,-0.606 0.68,0.014 1.085,0.182 1.681,0.606 0.886,0.624 1.901,1.953 3.408,3.271 1.497,1.316 3.713,2.524 6.65,2.5 0.919,0.009 1.751,-0.111 2.519,-0.307 2.54,-0.647 4.293,-2.219 5.486,-3.49 0.805,-0.835 1.471,-1.552 2.052,-1.975 0.597,-0.424 1.001,-0.593 1.681,-0.606 0.68,0.014 1.086,0.182 1.683,0.606 0.884,0.624 1.901,1.953 3.406,3.271 1.497,1.316 3.713,2.524 6.651,2.5 3.959,0.04 6.449,-2.141 8.004,-3.797 0.807,-0.835 1.471,-1.552 2.054,-1.975 0.597,-0.424 1.002,-0.593 1.681,-0.606 0.68,0.014 1.084,0.182 1.681,0.606 0.886,0.624 1.901,1.953 3.408,3.271 1.495,1.316 3.711,2.524 6.649,2.5 3.96,0.04 6.45,-2.141 8.006,-3.797 0.805,-0.835 1.469,-1.552 2.052,-1.975 0.597,-0.424 1.001,-0.593 1.682,-0.606 0.68,0.014 1.085,0.182 1.681,0.606 0.886,0.624 1.901,1.953 3.408,3.271 1.497,1.316 3.713,2.524 6.65,2.5 3.961,0.04 6.451,-2.141 8.005,-3.797 0.807,-0.835 1.471,-1.552 2.052,-1.975 0.597,-0.424 1.003,-0.593 1.683,-0.606 0.678,0.014 1.084,0.182 1.681,0.606 0.884,0.624 1.901,1.953 3.408,3.271 1.495,1.316 3.712,2.524 6.649,2.5 3.96,0.04 6.449,-2.141 8.006,-3.797 0.805,-0.835 1.469,-1.552 2.052,-1.975 0.597,-0.424 1.001,-0.593 1.681,-0.606 0.68,0.014 1.084,0.182 1.681,0.606 0.886,0.624 1.901,1.953 3.408,3.271 1.497,1.316 3.713,2.524 6.649,2.5 3.961,0.04 6.452,-2.141 8.006,-3.797 0.807,-0.835 1.471,-1.552 2.052,-1.975 0.597,-0.424 1.002,-0.593 1.682,-0.606 0.68,0.014 1.087,0.182 1.683,0.606 0.884,0.624 1.901,1.953 3.408,3.271 1.495,1.316 3.711,2.524 6.65,2.5 3.959,0.04 6.449,-2.141 8.005,-3.797 0.805,-0.835 1.469,-1.552 2.052,-1.975 0.597,-0.424 1.001,-0.593 1.681,-0.606 0.68,0.014 1.085,0.182 1.681,0.606 0.886,0.624 1.901,1.953 3.408,3.271 1.497,1.316 3.711,2.524 6.649,2.5 3.96,0.04 6.451,-2.141 8.006,-3.797 0.805,-0.835 1.471,-1.552 2.052,-1.975 0.597,-0.424 1.001,-0.593 1.681,-0.606 0.68,0.014 1.086,0.182 1.683,0.606 0.884,0.624 1.901,1.953 3.406,3.271 1.497,1.316 3.713,2.524 6.651,2.5 3.959,0.04 6.45,-2.141 8.004,-3.797 0.807,-0.835 1.471,-1.552 2.054,-1.975 0.595,-0.424 1.001,-0.593 1.682,-0.606 0.68,0.014 1.085,0.182 1.681,0.606 0.884,0.624 1.901,1.953 3.408,3.271 1.495,1.316 3.711,2.524 6.65,2.5 3.959,0.04 6.449,-2.141 8.005,-3.797 0.805,-0.835 1.469,-1.552 2.052,-1.975 0.597,-0.424 1.001,-0.593 1.681,-0.606 0.68,0.014 1.085,0.182 1.681,0.606 0.886,0.624 1.901,1.953 3.408,3.271 1.497,1.316 3.713,2.524 6.65,2.5 3.961,0.04 6.451,-2.141 8.006,-3.797 0.807,-0.835 1.471,-1.552 2.052,-1.975 0.597,-0.424 1.001,-0.593 1.683,-0.606 0.678,0.014 1.085,0.182 1.681,0.606 0.884,0.624 1.901,1.953 3.408,3.271 1.495,1.316 3.712,2.524 6.65,2.5 3.959,0.04 6.449,-2.141 8.005,-3.797 0.805,-0.835 1.469,-1.552 2.052,-1.975 0.597,-0.424 1.001,-0.593 1.681,-0.606 0.68,0.014 1.084,0.182 1.681,0.606 0.886,0.624 1.901,1.953 3.408,3.271 1.496,1.316 3.713,2.524 6.649,2.5 3.961,0.04 6.451,-2.141 8.005,-3.797 0.805,-0.835 1.471,-1.552 2.052,-1.975 0.597,-0.424 1.001,-0.593 1.681,-0.606 0.68,0.014 1.087,0.182 1.683,0.606 0.884,0.624 1.901,1.953 3.406,3.271 1.497,1.316 3.713,2.524 6.651,2.5 3.959,0.04 6.449,-2.141 8.004,-3.797 0.807,-0.835 1.471,-1.552 2.054,-1.975 0.597,-0.424 1.001,-0.593 1.681,-0.606 0.68,0.014 1.085,0.182 1.682,0.606 0.886,0.624 1.901,1.953 3.408,3.271 1.495,1.316 3.711,2.524 6.65,2.5 0.035,10e-4 0.071,10e-4 0.106,10e-4 3.897,0 6.357,-2.157 7.899,-3.797 0.805,-0.835 1.469,-1.552 2.052,-1.975 0.597,-0.424 1.001,-0.593 1.681,-0.606 0.68,0.014 1.084,0.182 1.681,0.606 0.886,0.624 1.901,1.953 3.408,3.271 1.497,1.316 3.713,2.524 6.649,2.5 v -4.001 c -2.522,-0.041 -3.595,-1.047 -5.135,-2.581 -0.744,-0.757 -1.509,-1.636 -2.548,-2.407 -1.023,-0.773 -2.429,-1.402 -4.056,-1.388 -1.626,-0.014 -3.032,0.615 -4.057,1.388 -1.544,1.167 -2.534,2.529 -3.638,3.454 -1.116,0.924 -2.12,1.508 -4.044,1.534 -2.524,-0.041 -3.597,-1.047 -5.135,-2.581 -0.743,-0.757 -1.509,-1.636 -2.547,-2.407 -1.025,-0.773 -2.431,-1.402 -4.057,-1.388 -1.627,-0.014 -3.033,0.615 -4.056,1.388 -1.546,1.167 -2.534,2.529 -3.638,3.454 -1.116,0.924 -2.119,1.508 -4.044,1.534 -2.524,-0.041 -3.596,-1.047 -5.137,-2.581 -0.742,-0.757 -1.509,-1.636 -2.548,-2.407 -1.023,-0.773 -2.428,-1.402 -4.056,-1.388 -1.625,-0.014 -3.031,0.615 -4.056,1.388 -1.544,1.167 -2.534,2.529 -3.638,3.454 -1.116,0.924 -2.12,1.508 -4.044,1.534 -2.524,-0.041 -3.597,-1.047 -5.135,-2.581 -0.744,-0.757 -1.509,-1.636 -2.548,-2.407 -1.025,-0.773 -2.429,-1.402 -4.056,-1.388 -1.628,-0.014 -3.034,0.615 -4.057,1.388 -1.545,1.167 -2.534,2.529 -3.638,3.454 -1.116,0.924 -2.12,1.508 -4.044,1.534 -2.524,-0.041 -3.597,-1.047 -5.137,-2.581 -0.741,-0.757 -1.509,-1.636 -2.547,-2.407 -1.023,-0.773 -2.429,-1.402 -4.055,-1.388 -1.628,-0.014 -3.033,0.615 -4.056,1.388 -1.546,1.167 -2.534,2.529 -3.64,3.454 -1.114,0.924 -2.119,1.508 -4.044,1.534 -2.522,-0.041 -3.596,-1.047 -5.135,-2.581 -0.744,-0.757 -1.509,-1.636 -2.548,-2.407 -1.023,-0.773 -2.429,-1.402 -4.056,-1.388 -1.626,-0.014 -3.033,0.615 -4.056,1.388 -1.544,1.167 -2.534,2.529 -3.638,3.454 -1.116,0.924 -2.12,1.508 -4.044,1.534 -2.524,-0.041 -3.597,-1.047 -5.137,-2.581 -0.742,-0.757 -1.509,-1.636 -2.546,-2.407 -1.025,-0.773 -2.431,-1.402 -4.056,-1.388 -1.628,-0.014 -3.034,0.615 -4.057,1.388 -1.546,1.167 -2.534,2.529 -3.64,3.454 -1.114,0.924 -2.117,1.508 -4.042,1.534 -2.523,-0.041 -3.596,-1.047 -5.137,-2.581 -0.743,-0.757 -1.509,-1.636 -2.547,-2.407 -1.023,-0.773 -2.429,-1.402 -4.057,-1.388 -1.626,-0.014 -3.031,0.615 -4.056,1.388 -1.544,1.167 -2.534,2.529 -3.638,3.454 -1.116,0.924 -2.119,1.508 -4.044,1.534 -2.524,-0.041 -3.596,-1.047 -5.135,-2.581 -0.744,-0.757 -1.509,-1.636 -2.548,-2.407 -1.025,-0.773 -2.429,-1.402 -4.056,-1.388 -1.628,-0.014 -3.033,0.615 -4.056,1.388 -1.545,1.167 -2.534,2.529 -3.638,3.454 -1.116,0.924 -2.12,1.508 -4.044,1.534 -2.524,-0.041 -3.597,-1.047 -5.137,-2.581 -0.741,-0.757 -1.508,-1.636 -2.547,-2.407 -1.023,-0.773 -2.429,-1.402 -4.056,-1.388 -1.626,-0.014 -3.032,0.615 -4.055,1.388 -1.546,1.167 -2.534,2.529 -3.64,3.454 -1.116,0.924 -2.119,1.508 -4.044,1.534 -2.524,-0.041 -3.596,-1.047 -5.135,-2.581 -0.743,-0.757 -1.509,-1.636 -2.547,-2.407 -1.023,-0.773 -2.429,-1.402 -4.057,-1.388 -1.627,-0.014 -3.033,0.615 -4.056,1.388 -1.545,1.167 -2.534,2.529 -3.638,3.454 -1.116,0.924 -2.119,1.508 -4.045,1.534 -2.524,-0.041 -3.596,-1.047 -5.137,-2.581 -0.742,-0.757 -1.509,-1.636 -2.546,-2.407 -1.025,-0.773 -2.431,-1.402 -4.056,-1.388 -1.628,-0.014 -3.033,0.615 -4.057,1.388 -1.546,1.167 -2.534,2.529 -3.64,3.454 -1.114,0.924 -2.118,1.508 -4.045,1.534 -2.522,-0.041 -3.595,-1.047 -5.135,-2.581 -0.743,-0.757 -1.508,-1.636 -2.547,-2.407 -1.023,-0.773 -2.429,-1.402 -4.056,-1.388 -1.626,-0.014 -3.032,0.615 -4.057,1.388 -1.544,1.167 -2.534,2.529 -3.638,3.454 -1.116,0.924 -2.119,1.508 -4.045,1.534 -2.523,-0.041 -3.596,-1.047 -5.135,-2.581 -0.743,-0.757 -1.509,-1.636 -2.547,-2.407 -1.025,-0.773 -2.431,-1.402 -4.057,-1.388 -1.627,-0.014 -3.033,0.615 -4.056,1.388 -1.546,1.167 -2.534,2.529 -3.638,3.454 -1.116,0.924 -2.119,1.508 -4.044,1.534 -2.524,-0.041 -3.596,-1.047 -5.137,-2.581 -0.742,-0.757 -1.509,-1.636 -2.548,-2.407 -1.023,-0.773 -2.429,-1.402 -4.056,-1.388 -1.626,-0.014 -3.031,0.615 -4.055,1.388 -1.546,1.167 -2.534,2.529 -3.64,3.454 -0.499,0.413 -0.979,0.753 -1.525,1.011 -0.676,0.319 -1.455,0.509 -2.519,0.523 -2.524,-0.041 -3.597,-1.047 -5.135,-2.581 -0.743,-0.757 -1.508,-1.636 -2.547,-2.407 -1.025,-0.773 -2.429,-1.402 -4.056,-1.388 -1.628,-0.014 -3.034,0.615 -4.057,1.388 -1.544,1.167 -2.534,2.529 -3.638,3.454 -1.116,0.924 -2.119,1.508 -4.044,1.534 v 4.001 c 3.962,0.054 6.453,-2.126 8.009,-3.782 z"
         id="path1111"
         style="fill:#0066ff;fill-opacity:1" />
      <g
         id="g1123"
         style="fill:#0066ff;fill-opacity:1">
        <path
           d="m 210.23,131.887 c 7.77,-1.947 13.887,-5.006 18.608,-9.042 4.266,-3.656 7.204,-8.075 8.965,-12.643 1.77,-4.577 2.415,-9.267 2.417,-13.731 -0.018,-8.245 -2.144,-15.815 -4.197,-21.444 -2.065,-5.624 -4.106,-9.297 -4.223,-9.507 -0.956,-1.711 -2.57,-2.818 -4.348,-3.191 -1.452,3.479 -3.718,6.585 -7.188,9.153 0.059,0.124 0.115,0.249 0.183,0.371 0,0 0,0 0.039,0.074 0.653,1.068 6.831,13.387 6.732,24.545 0,3.215 -0.472,6.286 -1.538,9.032 -1.643,4.107 -4.39,7.668 -10.137,10.686 -5.746,2.982 -14.708,5.162 -27.983,5.152 -17.75,0.008 -27.629,-3.86 -32.803,-8.352 -2.621,-2.268 -4.242,-4.733 -5.319,-7.484 -1.066,-2.748 -1.54,-5.819 -1.538,-9.034 -0.016,-5.926 1.654,-12.247 3.4,-16.966 0.867,-2.364 1.738,-4.33 2.379,-5.68 0.322,-0.672 0.583,-1.193 0.76,-1.53 0.012,-0.023 0.02,-0.038 0.031,-0.059 -3.941,-2.606 -6.467,-5.843 -8.074,-9.5 -1.258,0.549 -2.355,1.492 -3.075,2.783 -0.117,0.21 -2.159,3.884 -4.225,9.505 -2.054,5.631 -4.182,13.202 -4.197,21.446 0.002,4.464 0.645,9.156 2.416,13.731 2.617,6.877 7.999,13.311 16.298,17.54 3.308,1.701 7.052,3.087 11.276,4.147 l -11.49,57.63 h 68.32 z"
           id="path1113"
           style="fill:#0066ff;fill-opacity:1" />
        <path
           d="m 175.768,78.525 c -4.21,2.861 -7.41,7.232 -8.655,12.581 -2.631,11.293 4.393,22.58 15.688,25.209 11.291,2.629 22.578,-4.393 25.209,-15.688 2.041,-8.774 -1.759,-17.524 -8.845,-22.234 -3.668,0.404 -7.748,0.625 -12.332,0.625 -4.063,0.001 -7.727,-0.174 -11.065,-0.493 z"
           id="path1115"
           style="fill:#0066ff;fill-opacity:1" />
        <path
           d="m 186.832,77.019 c 37.834,0 41.166,-14.326 41.166,-32 0,-5.939 -12.705,-8.859 -16.333,-13.627 -5.224,-6.864 -8.013,-13.481 -14.986,-16.565 -4.008,1.709 -7.883,2.261 -11.146,2.261 -0.005,0 -0.011,0 -0.017,0 -4.143,-0.001 -7.304,-0.847 -8.631,-1.27 -4.668,2.753 -8.377,6.979 -12.888,10.062 -8.582,5.865 -18.333,9.559 -18.333,19.139 0.001,17.674 3.334,32 41.168,32 z"
           id="path1117"
           style="fill:#0066ff;fill-opacity:1" />
        <path
           d="m 179.525,13.424 c 1.459,0.332 3.542,0.665 5.992,0.665 2.277,0 4.865,-0.292 7.577,-1.129 0.163,-0.409 0.32,-0.821 0.473,-1.236 1.021,-2.776 1.756,-5.661 1.431,-8.371 -1,-8.334 -32.334,1.166 -24,3.833 3.319,1.063 5.261,3.314 6.399,5.64 0.087,0.032 0.227,0.081 0.444,0.149 0.384,0.12 0.955,0.284 1.684,0.449 z"
           id="path1119"
           style="fill:#0066ff;fill-opacity:1" />
        <path
           d="m 196.773,13.239 0.6,1.297 v -0.002 c 0.35,-0.161 0.704,-0.333 1.057,-0.511 0.189,-0.097 0.374,-0.168 0.561,-0.248 1.073,-0.461 2.109,-0.67 3.136,-0.673 3.751,-0.043 7.689,2.841 10.592,5.947 1.454,1.538 2.649,3.09 3.473,4.251 0.826,1.163 1.263,1.903 1.265,1.903 l 2.579,-1.531 c -0.035,-0.057 -1.982,-3.339 -5.137,-6.682 -3.156,-3.31 -7.527,-6.843 -12.773,-6.886 -1.662,-0.002 -3.382,0.387 -5.063,1.248 -0.315,0.162 -0.631,0.315 -0.95,0.461 l 0.001,10e-4 c 0.001,-10e-4 0.003,-10e-4 0.004,-0.002 z"
           id="path1121"
           style="fill:#0066ff;fill-opacity:1" />
      </g>
      <g
         id="g1133"
         style="fill:#0066ff;fill-opacity:1">
        <polygon
           points="271.747,188.186 277.749,188.186 277.749,164.755 306.247,136.256 334.747,164.756 334.747,188.186 340.747,188.186 340.747,170.756 345.212,175.221 352.283,168.15 333.498,149.366 333.498,131.686 323.498,131.686 323.498,139.366 306.247,122.115 260.211,168.15 267.283,175.22 271.747,170.756 "
           id="polygon1125"
           style="fill:#0066ff;fill-opacity:1" />
        <polygon
           points="267.283,175.22 267.282,175.221 267.284,175.221 "
           id="polygon1127"
           style="fill:#0066ff;fill-opacity:1" />
        <rect
           x="287.08099"
           y="169.519"
           width="18.5"
           height="20"
           id="rect1129"
           style="fill:#0066ff;fill-opacity:1" />
        <rect
           x="314.08301"
           y="169.519"
           width="11.332"
           height="11.334"
           id="rect1131"
           style="fill:#0066ff;fill-opacity:1" />
      </g>
    </g>
  </g>
</svg>
