<?xml version="1.0" encoding="UTF-8" standalone="no"?>
<!-- Created with Inkscape (http://www.inkscape.org/) -->

<svg
   width="180.12845mm"
   height="79.375mm"
   viewBox="0 0 180.12845 79.375"
   version="1.1"
   id="svg955"
   inkscape:version="1.1 (c68e22c387, 2021-05-23)"
   xmlns:inkscape="http://www.inkscape.org/namespaces/inkscape"
   xmlns:sodipodi="http://sodipodi.sourceforge.net/DTD/sodipodi-0.dtd"
   xmlns="http://www.w3.org/2000/svg"
   xmlns:svg="http://www.w3.org/2000/svg">
  <sodipodi:namedview
     id="namedview957"
     pagecolor="#ffffff"
     bordercolor="#666666"
     borderopacity="1.0"
     inkscape:pageshadow="2"
     inkscape:pageopacity="0.0"
     inkscape:pagecheckerboard="0"
     inkscape:document-units="mm"
     showgrid="false"
     inkscape:zoom="0.74118967"
     inkscape:cx="162.57647"
     inkscape:cy="-82.974712"
     inkscape:window-width="1920"
     inkscape:window-height="1017"
     inkscape:window-x="-8"
     inkscape:window-y="-8"
     inkscape:window-maximized="1"
     inkscape:current-layer="layer1" />
  <defs
     id="defs952" />
  <g
     inkscape:label="Layer 1"
     inkscape:groupmode="layer"
     id="layer1"
     transform="translate(-192.96597,-148.53598)">
    <g
       id="g1970"
       transform="matrix(1.3229166,0,0,1.3229166,242.51253,146.38076)"
       inkscape:export-filename="D:\UPRI-Assets\NOAH Assets\HazardLevel\Flood\flood-boots.png"
       inkscape:export-xdpi="96"
       inkscape:export-ydpi="96"
       style="fill:#0066ff;fill-opacity:1">
      <g
         id="g1968"
         style="fill:#0066ff;fill-opacity:1">
        <path
           d="M 28,11 A 1,1 0 0 0 27,10 H 3 a 1,1 0 0 0 -1,1 v 3 h 26 z"
           id="path1954"
           style="fill:#0066ff;fill-opacity:1" />
        <path
           d="M 10,51 A 5.006,5.006 0 0 0 5,46 H 3.862 c 0.049,1.025 0.1,2.03 0.138,3 v 3 h 6 z"
           id="path1956"
           style="fill:#0066ff;fill-opacity:1" />
        <path
           d="m 12,51 v 1 h 5.789 a 4.979,4.979 0 0 1 2.774,0.84 l 3.984,2.66 A 2.984,2.984 0 0 0 26.211,56 H 48 V 55 A 5.006,5.006 0 0 0 43,50 H 42 A 14.015,14.015 0 0 1 28,36 V 16 H 2.066 c 0.243,3.565 1.125,16.722 1.7,28 H 5 a 7.008,7.008 0 0 1 7,7 z"
           id="path1958"
           style="fill:#0066ff;fill-opacity:1" />
        <path
           d="M 23.437,57.161 19.453,54.5 A 2.984,2.984 0 0 0 17.789,54 H 4 v 7 a 1,1 0 0 0 1,1 h 12 a 1,1 0 0 0 1,-1 v -2.131 l 4.445,2.963 A 1,1 0 0 0 23,62 h 24 a 1,1 0 0 0 1,-1 V 58 H 26.211 a 4.986,4.986 0 0 1 -2.774,-0.839 z"
           id="path1960"
           style="fill:#0066ff;fill-opacity:1" />
        <path
           d="M 42,3 A 1,1 0 0 0 41,2 H 17 a 1,1 0 0 0 -1,1 v 3 h 26 z"
           id="path1962"
           style="fill:#0066ff;fill-opacity:1" />
        <path
           d="m 62,47 v 1 H 42 A 12.3,12.3 0 0 1 38.55,47.5 L 38.53,47.49 A 12.046,12.046 0 0 1 30,36 V 11 A 3.009,3.009 0 0 0 27,8 h 15 v 20 a 14.015,14.015 0 0 0 14,14 h 1 a 5,5 0 0 1 5,5 z"
           id="path1964"
           style="fill:#0066ff;fill-opacity:1" />
        <path
           d="m 62,50 v 3 a 1,1 0 0 1 -1,1 H 49.92 a 6.909,6.909 0 0 0 -2.03,-4 z"
           id="path1966"
           style="fill:#0066ff;fill-opacity:1" />
      </g>
    </g>
  </g>
</svg>
