<?xml version="1.0" encoding="UTF-8" standalone="no"?>
<!-- Created with Inkscape (http://www.inkscape.org/) -->

<svg
   width="180.12845mm"
   height="79.375mm"
   viewBox="0 0 180.12845 79.375"
   version="1.1"
   id="svg955"
   inkscape:version="1.1 (c68e22c387, 2021-05-23)"
   xmlns:inkscape="http://www.inkscape.org/namespaces/inkscape"
   xmlns:sodipodi="http://sodipodi.sourceforge.net/DTD/sodipodi-0.dtd"
   xmlns="http://www.w3.org/2000/svg"
   xmlns:svg="http://www.w3.org/2000/svg">
  <sodipodi:namedview
     id="namedview957"
     pagecolor="#ffffff"
     bordercolor="#666666"
     borderopacity="1.0"
     inkscape:pageshadow="2"
     inkscape:pageopacity="0.0"
     inkscape:pagecheckerboard="0"
     inkscape:document-units="mm"
     showgrid="false"
     inkscape:zoom="0.74118967"
     inkscape:cx="162.57647"
     inkscape:cy="-82.974712"
     inkscape:window-width="1920"
     inkscape:window-height="1017"
     inkscape:window-x="-8"
     inkscape:window-y="-8"
     inkscape:window-maximized="1"
     inkscape:current-layer="layer1" />
  <defs
     id="defs952" />
  <g
     inkscape:label="Layer 1"
     inkscape:groupmode="layer"
     id="layer1"
     transform="translate(-192.96597,-148.53598)">
    <g
       id="g1226"
       transform="matrix(1.1241591,0,0,1.1241591,-23.958477,-18.44209)">
      <path
         d="m 247.29792,179.09147 c -1.54416,-3.65594 -3.014,-6.54408 -4.71689,-9.11834 -0.61719,-0.24362 -1.24412,-0.47385 -1.89296,-0.67484 -3.60315,-1.11497 -6.99114,-1.35047 -9.19834,-1.35047 l -0.0422,8e-4 c -1.95548,0 -3.18535,0.18149 -3.19791,0.1823 -0.20387,0.0325 -0.41622,0.0491 -0.62693,0.0491 -2.01068,0 -3.69615,-1.44508 -4.00677,-3.43546 -0.16688,-1.07153 0.093,-2.14428 0.73329,-3.01969 0.63913,-0.87622 1.58192,-1.44955 2.65305,-1.61765 0.0686,-0.0102 1.78573,-0.27773 4.46191,-0.27976 0.60135,5.3e-4 1.19867,0.0179 1.79388,0.0434 -4.17404,-3.08831 -8.63637,-2.51905 -11.17772,-0.54977 -0.5161,0.2895 -0.96071,0.7199 -1.26363,1.2782 l -15.22632,28.01646 c -0.85672,1.57582 -0.27326,3.54875 1.30255,4.40467 0.49294,0.26799 1.02401,0.39508 1.54823,0.39508 1.15192,0 2.26769,-0.61474 2.85681,-1.69723 l 11.74748,-21.61572 c 0.003,0.003 0.006,0.007 0.009,0.009 3.07813,3.59016 7.46659,8.33022 10.40344,13.50718 l -12.01624,7.04228 c -1.20306,0.70569 -2.05007,1.85112 -2.37243,3.20849 l -0.41172,1.73743 h 24.34304 l 2.11055,-7.28185 c 2.21901,-1.8373 3.74934,-4.57642 2.18734,-9.23324 z"
         id="path1043"
         style="fill:#0066ff;fill-opacity:1;stroke-width:0.406035" />
      <path
         d="m 219.68386,158.11201 c 0.11451,-2.35744 -0.67606,-4.75752 -2.40131,-6.63097 -3.4172,-3.70913 -9.19506,-3.94707 -12.90584,-0.52987 -3.71078,3.4172 -3.9487,9.19508 -0.5315,12.90503 3.03874,3.29945 7.94002,3.84597 11.59799,1.52588 0.45643,-0.2895 0.89611,-0.61595 1.30783,-0.99438 1.83695,-1.69276 2.81993,-3.96372 2.93283,-6.27569 z"
         id="path1045"
         style="fill:#0066ff;fill-opacity:1;stroke-width:0.406035" />
      <path
         d="m 227.12728,160.9096 c -1.77313,0.27691 -2.98598,1.9372 -2.70862,3.71076 0.27606,1.77234 1.93717,2.98517 3.7103,2.70826 v -8e-4 c 0.11859,-0.0167 1.38785,-0.19205 3.33518,-0.19124 2.4139,-0.002 5.86518,0.27124 9.46431,1.38783 3.60841,1.11741 7.3415,3.04608 10.54962,6.37436 0.63789,0.66224 1.48812,0.99519 2.34037,0.99519 0.81005,0 1.62132,-0.30128 2.2519,-0.9079 1.29241,-1.24409 1.33138,-3.30066 0.0873,-4.59348 -4.1026,-4.26337 -8.89423,-6.71299 -13.30904,-8.07564 -4.42415,-1.36631 -8.49548,-1.67571 -11.38402,-1.67734 -2.56899,0.001 -4.20774,0.24931 -4.33728,0.27002 z"
         id="path1047"
         style="fill:#0066ff;fill-opacity:1;stroke-width:0.406035" />
      <path
         d="M 331.78503,179.31748 322.128,153.5474 c 0,0 -20.05522,-3.3365 -26.23574,-3.3365 -6.18471,0 -26.23798,3.3365 -26.23798,3.3365 l -9.65993,25.77008 c -2.02655,0.56396 -3.15865,0.93971 -3.15865,0.93971 v 15.30043 h 78.10474 v -15.30043 c 2.4e-4,0 -1.13211,-0.37575 -3.15541,-0.93971 z m -63.4417,12.89555 c -2.79808,0 -5.06294,-2.26615 -5.06294,-5.06198 0,-2.79648 2.26486,-5.06328 5.06294,-5.06328 2.7939,0 5.06169,2.2668 5.06169,5.06328 0,2.79583 -2.26779,5.06198 -5.06169,5.06198 z m -1.17091,-14.96898 6.8858,-18.33264 c 4.59826,-0.73954 17.19438,-2.68879 21.83404,-2.68879 4.63547,0 17.23417,1.94894 21.82921,2.68362 l 6.87349,18.33781 c 0,0 -18.21558,-2.99243 -28.70658,-2.99243 -10.49519,0 -28.71596,2.99243 -28.71596,2.99243 z m 56.26101,14.96898 c -2.7939,0 -5.06038,-2.26615 -5.06038,-5.06198 0,-2.79648 2.26681,-5.06328 5.06038,-5.06328 2.79809,0 5.06231,2.2668 5.06231,5.06328 0,2.79583 -2.2639,5.06198 -5.06231,5.06198 z"
         id="path1049"
         style="fill:#0066ff;fill-opacity:1;stroke-width:0.323366" />
      <path
         d="m 209.64049,205.3186 c 0.32406,-0.53247 0.597,-0.99372 0.82256,-1.2515 0.23683,-0.26262 0.3419,-0.31514 0.52856,-0.32359 0.18619,0.009 0.2912,0.0616 0.5285,0.32359 0.34703,0.38517 0.76113,1.23641 1.37174,2.08041 0.59841,0.83976 1.55464,1.67954 2.83821,1.66203 1.73993,0.0139 2.77066,-1.45556 3.38833,-2.49094 0.32404,-0.53247 0.59653,-0.99372 0.82209,-1.2515 0.2373,-0.26262 0.34189,-0.31514 0.52906,-0.32359 0.18756,0.009 0.29117,0.0616 0.52851,0.32359 0.34655,0.38517 0.76207,1.23641 1.37173,2.08041 0.59841,0.83976 1.55554,1.67954 2.83869,1.66203 1.74035,0.0139 2.77018,-1.45556 3.38783,-2.49094 0.32406,-0.53247 0.59608,-0.99372 0.82163,-1.2515 0.23733,-0.26262 0.3424,-0.31514 0.52949,-0.32359 0.18716,0.009 0.29122,0.0616 0.52856,0.32359 0.34604,0.38517 0.76112,1.23762 1.37125,2.08041 0.59979,0.83976 1.55607,1.67954 2.83914,1.66203 1.74038,0.0139 2.77027,-1.45556 3.38878,-2.49094 0.32314,-0.53247 0.59513,-0.99372 0.82167,-1.2515 0.23727,-0.26262 0.34234,-0.31514 0.52948,-0.32359 0.18664,0.009 0.29123,0.0616 0.52803,0.32359 0.34658,0.38517 0.7616,1.23641 1.37083,2.08041 0.59981,0.83976 1.55697,1.67954 2.83866,1.66203 1.74128,0.0139 2.77165,-1.45556 3.38926,-2.49094 0.32409,-0.53247 0.59608,-0.99372 0.82167,-1.2515 0.23728,-0.26262 0.34184,-0.31514 0.52945,-0.32359 0.18664,0.009 0.29218,0.0616 0.52806,0.32359 0.34655,0.38517 0.76256,1.23762 1.37173,2.08041 0.59984,0.83976 1.55604,1.67954 2.83869,1.66203 1.74038,0.0139 2.77119,-1.45556 3.38878,-2.49094 0.32457,-0.53247 0.59656,-0.99372 0.82212,-1.2515 0.2373,-0.26262 0.34237,-0.31514 0.52945,-0.32359 0.18574,0.009 0.29078,0.0616 0.52809,0.32359 0.34657,0.38517 0.76112,1.23641 1.37083,2.08041 0.59978,0.83976 1.55601,1.67954 2.83869,1.66203 1.74032,0.0139 2.77021,-1.45556 3.38735,-2.49094 0.32453,-0.53247 0.59701,-0.99372 0.8226,-1.2515 0.23821,-0.26262 0.34186,-0.31514 0.53038,-0.32239 0.18574,0.008 0.29077,0.0604 0.52758,0.32239 0.34707,0.38517 0.76163,1.23641 1.37131,2.08041 0.59932,0.83976 1.55603,1.67954 2.83867,1.66203 1.74036,0.0139 2.77069,-1.45556 3.38834,-2.49094 0.32449,-0.53247 0.597,-0.99372 0.82256,-1.2515 0.23731,-0.26262 0.34188,-0.31514 0.52807,-0.32239 0.1871,0.008 0.29168,0.0604 0.52901,0.32239 0.347,0.38517 0.76114,1.23762 1.37219,2.08041 0.59842,0.83976 1.55558,1.67954 2.83773,1.66203 1.74038,0.0139 2.77069,-1.45556 3.38834,-2.49094 0.32406,-0.53247 0.59605,-0.99372 0.82256,-1.2515 0.23684,-0.26262 0.34188,-0.31514 0.52901,-0.32359 0.18619,0.009 0.29079,0.0616 0.52807,0.32359 0.34703,0.38517 0.76114,1.23641 1.37081,2.08041 0.59933,0.83976 1.55604,1.67954 2.83914,1.66203 1.74035,0.0139 2.77069,-1.45556 3.38833,-2.49094 0.32407,-0.53247 0.59701,-0.99372 0.82211,-1.2515 0.2373,-0.26262 0.34234,-0.31514 0.52901,-0.32359 0.18618,0.009 0.29122,0.0616 0.52853,0.32359 0.34657,0.38517 0.76113,1.23641 1.37081,2.08041 0.59933,0.83976 1.55558,1.67954 2.83914,1.66203 1.73989,0.0139 2.77069,-1.45556 3.38833,-2.49094 0.32406,-0.53247 0.59699,-0.99372 0.8221,-1.2515 0.23683,-0.26262 0.34235,-0.31514 0.529,-0.32359 0.18712,0.009 0.29123,0.0616 0.52947,0.32359 0.34657,0.38517 0.76114,1.23641 1.3708,2.08041 0.59935,0.83976 1.55559,1.67954 2.83869,1.66203 1.74036,0.0139 2.77115,-1.45556 3.38879,-2.49094 0.32406,-0.53247 0.5956,-0.99372 0.82211,-1.2515 0.23683,-0.26262 0.34141,-0.31514 0.52806,-0.32359 0.18665,0.009 0.29217,0.0616 0.52947,0.32359 0.3461,0.38517 0.76114,1.23641 1.37033,2.08041 0.59982,0.83976 1.55605,1.67954 2.83916,1.66203 1.73989,0.0139 2.77116,-1.45556 3.3888,-2.49094 0.32405,-0.53247 0.59652,-0.99372 0.82163,-1.2515 0.2373,-0.26262 0.34188,-0.31514 0.52947,-0.32359 0.18664,0.009 0.29123,0.0616 0.52806,0.32359 0.34657,0.38517 0.76162,1.23641 1.3708,2.08041 0.59982,0.83976 1.55699,1.67954 2.83963,1.66203 1.74035,0.0139 2.77022,-1.45556 3.38785,-2.49094 0.32453,-0.53247 0.59653,-0.99372 0.82211,-1.2515 0.2373,-0.26262 0.34188,-0.31514 0.53041,-0.32239 0.18618,0.008 0.29076,0.0604 0.52712,0.32239 0.34657,0.38517 0.76255,1.23641 1.37174,2.08041 0.59982,0.83976 1.55605,1.67954 2.83869,1.66203 1.74035,0.0139 2.77022,-1.45677 3.38785,-2.49094 0.32406,-0.53247 0.5956,-0.99372 0.82211,-1.2515 0.2373,-0.2608 0.34188,-0.31514 0.53041,-0.32239 0.18571,0.008 0.28982,0.0604 0.52665,0.32239 0.34704,0.38517 0.76255,1.23641 1.37222,2.08041 0.59277,0.83131 1.53588,1.66263 2.79835,1.66263 0.0127,0 0.0263,0 0.0394,-5.3e-4 v -2.41426 c -0.87557,-0.0139 -1.28357,-0.57776 -1.91575,-1.57509 -0.30107,-0.48479 -0.60638,-1.0396 -1.03455,-1.5431 -0.41691,-0.50049 -1.04252,-0.9575 -1.78631,-0.94844 -0.74473,-0.009 -1.37128,0.44675 -1.78866,0.94723 -0.63499,0.75947 -1.02893,1.62279 -1.47398,2.20719 -0.4549,0.59104 -0.79725,0.8947 -1.47773,0.911 -0.87651,-0.0133 -1.28404,-0.57655 -1.91622,-1.57388 -0.30155,-0.48479 -0.60544,-1.0396 -1.03502,-1.5431 -0.41645,-0.50049 -1.04252,-0.9575 -1.78631,-0.94844 -0.74473,-0.009 -1.37127,0.44795 -1.78819,0.94723 -0.63546,0.75947 -1.02893,1.62279 -1.47398,2.20719 -0.4549,0.59104 -0.79726,0.8947 -1.47773,0.911 -0.87745,-0.0133 -1.28499,-0.57655 -1.91716,-1.57388 -0.30108,-0.48479 -0.60544,-1.0396 -1.03408,-1.5431 -0.41738,-0.50049 -1.04347,-0.9575 -1.78678,-0.94844 -0.74473,-0.009 -1.37128,0.44795 -1.78866,0.94844 -0.63406,0.75826 -1.02752,1.62158 -1.47257,2.20598 -0.45537,0.59104 -0.79772,0.8947 -1.47867,0.911 -0.87698,-0.0133 -1.28451,-0.57655 -1.91669,-1.57388 -0.30108,-0.48479 -0.60544,-1.0396 -1.03502,-1.5431 -0.41645,-0.50049 -1.04347,-0.9575 -1.78725,-0.94844 -0.74473,-0.009 -1.3708,0.44795 -1.78725,0.94844 -0.63499,0.75826 -1.02893,1.62158 -1.47304,2.20598 -0.4549,0.59104 -0.79773,0.8947 -1.47867,0.911 -0.87698,-0.0133 -1.28452,-0.57655 -1.91669,-1.57388 -0.30061,-0.48479 -0.60638,-1.0396 -1.03455,-1.5431 -0.41738,-0.50049 -1.04393,-0.9575 -1.78725,-0.94844 -0.74473,-0.009 -1.37082,0.44795 -1.78725,0.94844 -0.635,0.75826 -1.02893,1.62158 -1.47398,2.20598 -0.45492,0.58983 -0.79772,0.8947 -1.4782,0.911 -0.87651,-0.0133 -1.28497,-0.57655 -1.91716,-1.57388 -0.3006,-0.48479 -0.60543,-1.0396 -1.03361,-1.5431 -0.41739,-0.50049 -1.04393,-0.9575 -1.78725,-0.94844 -0.74473,-0.009 -1.37034,0.44795 -1.78819,0.94844 -0.63405,0.75826 -1.02752,1.62158 -1.47306,2.20598 -0.45584,0.59104 -0.79772,0.8947 -1.47817,0.911 -0.87605,-0.0133 -1.285,-0.57655 -1.91718,-1.57388 -0.30061,-0.48479 -0.60544,-1.0396 -1.03454,-1.5431 -0.41644,-0.50049 -1.043,-0.9575 -1.7863,-0.94844 -0.74522,-0.009 -1.3708,0.44795 -1.78822,0.94844 -0.63405,0.75826 -1.02751,1.62158 -1.47302,2.20598 -0.45538,0.59104 -0.79727,0.8947 -1.47818,0.911 -0.87605,-0.0127 -1.28454,-0.57655 -1.91669,-1.57388 -0.30109,-0.48479 -0.60593,-1.0396 -1.03457,-1.5431 -0.41692,-0.50049 -1.04297,-0.9575 -1.78773,-0.94844 -0.74378,-0.009 -1.36986,0.44795 -1.78724,0.94844 -0.63406,0.75826 -1.02751,1.62158 -1.47305,2.20598 -0.45536,0.59104 -0.7982,0.8947 -1.47818,0.911 -0.8756,-0.0133 -1.28452,-0.57655 -1.9167,-1.57388 -0.30108,-0.48479 -0.60543,-1.0396 -1.03456,-1.5431 -0.41693,-0.50049 -1.04298,-0.9575 -1.78632,-0.94844 -0.7447,-0.009 -1.37124,0.44795 -1.78865,0.94723 -0.635,0.75947 -1.02846,1.62279 -1.47349,2.20719 -0.45495,0.59104 -0.79634,0.8947 -1.47775,0.911 -0.87648,-0.0133 -1.28405,-0.57655 -1.91622,-1.57388 -0.30154,-0.48479 -0.60589,-1.0396 -1.03502,-1.5431 -0.4169,-0.50049 -1.04254,-0.9575 -1.78633,-0.94844 -0.7447,-0.009 -1.37126,0.44795 -1.78814,0.94844 -0.63457,0.75826 -1.02804,1.62158 -1.47307,2.20598 -0.45585,0.58983 -0.79816,0.8947 -1.47865,0.911 -0.87653,-0.0127 -1.28407,-0.57655 -1.91624,-1.57388 -0.30107,-0.48479 -0.60685,-1.0396 -1.03502,-1.5431 -0.41736,-0.50049 -1.04347,-0.9575 -1.78724,-0.94844 -0.74475,-0.009 -1.37128,0.44795 -1.78821,0.94844 -0.63452,0.75826 -1.02799,1.62158 -1.47257,2.20598 -0.45537,0.59104 -0.79771,0.8947 -1.47912,0.911 -0.87651,-0.0133 -1.28405,-0.57655 -1.91622,-1.57388 -0.30107,-0.48479 -0.60545,-1.0396 -1.0341,-1.5431 -0.41738,-0.50049 -1.04344,-0.9575 -1.78723,-0.94844 -0.74473,-0.009 -1.37131,0.44795 -1.78819,0.94723 -0.63452,0.75947 -1.02894,1.62279 -1.47307,2.20719 -0.45632,0.59104 -0.79862,0.8947 -1.47865,0.911 -0.87699,-0.0133 -1.28452,-0.57655 -1.91762,-1.57388 -0.30014,-0.48479 -0.60544,-1.0396 -1.03412,-1.5431 -0.41736,-0.50049 -1.04344,-0.9575 -1.78721,-0.94844 -0.74472,-0.009 -1.37081,0.44795 -1.78723,0.94844 -0.635,0.75826 -1.02894,1.62158 -1.47402,2.20598 -0.45487,0.59104 -0.79775,0.8947 -1.47775,0.911 -0.87694,-0.0133 -1.28448,-0.57655 -1.91665,-1.57388 -0.30062,-0.48479 -0.60634,-1.0396 -1.03457,-1.5431 -0.41735,-0.50049 -1.04391,-0.9575 -1.78768,-0.94844 -0.74478,-0.009 -1.37084,0.44795 -1.78824,0.94844 -0.63355,0.75826 -1.02749,1.62158 -1.47299,2.20598 -0.45493,0.59104 -0.79772,0.8947 -1.47823,0.911 -0.87648,-0.0133 -1.285,-0.57655 -1.91717,-1.57388 -0.30062,-0.48479 -0.60542,-1.0396 -1.03362,-1.5431 -0.41738,-0.50049 -1.04391,-0.9575 -1.78721,-0.94844 -0.74475,-0.009 -1.37035,0.44795 -1.78824,0.94844 -0.63402,0.75826 -1.02796,1.62158 -1.47301,2.20598 -0.45538,0.59104 -0.79772,0.8947 -1.4782,0.911 -0.53978,-0.008 -0.90183,-0.22639 -1.24746,-0.62424 -0.21619,-0.24813 -0.4263,-0.56629 -0.66969,-0.94964 -0.30062,-0.48479 -0.60544,-1.0396 -1.03409,-1.5431 -0.41693,-0.50049 -1.04299,-0.9575 -1.78771,-0.94844 -0.7438,-0.009 -1.36986,0.44795 -1.78726,0.94844 -0.63498,0.75826 -1.02847,1.62158 -1.47302,2.20598 -0.45537,0.59104 -0.79867,0.8947 -1.47823,0.911 v 2.41547 c 1.74038,0.0139 2.77067,-1.45556 3.38741,-2.49093 0.32406,-0.53248 0.59698,-0.99372 0.82352,-1.2515 0.2373,-0.26262 0.34091,-0.31515 0.52805,-0.32239 0.18712,0.008 0.29168,0.0604 0.52904,0.32239 0.347,0.38517 0.7611,1.23641 1.37123,2.0804 0.38502,0.53973 0.91963,1.07582 1.59075,1.38795 0.37378,0.17386 0.7888,0.28072 1.24746,0.27408 1.73569,0.0139 2.76598,-1.45556 3.38365,-2.49093 z"
         id="path1051"
         style="fill:#0066ff;fill-opacity:1;stroke-width:0.532098" />
      <path
         d="m 265.50691,215.15472 c -0.34303,-0.48419 -0.69088,-1.0396 -1.18001,-1.5425 -0.47575,-0.50108 -1.19068,-0.95628 -2.03944,-0.94723 -0.84981,-0.009 -1.56368,0.44615 -2.03943,0.94723 -0.72406,0.75827 -1.17356,1.62098 -1.68143,2.20598 -0.51961,0.58983 -0.91027,0.8929 -1.68677,0.91041 -0.99965,-0.0133 -1.46521,-0.57655 -2.18662,-1.57389 -0.34354,-0.48419 -0.69191,-1.0396 -1.18049,-1.5425 -0.47628,-0.50108 -1.19121,-0.95628 -2.03999,-0.94844 -0.84979,-0.008 -1.56369,0.44736 -2.0405,0.94844 -0.72353,0.75827 -1.17303,1.62098 -1.68142,2.20598 -0.51909,0.58983 -0.90975,0.8929 -1.68625,0.91041 -1.00017,-0.0133 -1.46523,-0.57655 -2.18712,-1.57389 -0.34356,-0.48419 -0.69141,-1.0396 -1.18052,-1.5425 -0.47628,-0.50108 -1.19015,-0.95628 -2.03999,-0.94723 -0.8482,-0.009 -1.56313,0.44615 -2.03996,0.94723 -0.72348,0.75827 -1.17356,1.62098 -1.68032,2.20598 -0.5202,0.58983 -0.91136,0.8929 -1.68786,0.91041 -0.99967,-0.0133 -1.4647,-0.57655 -2.18715,-1.57389 -0.343,-0.48419 -0.69088,-1.03839 -1.17999,-1.5425 -0.47683,-0.50108 -1.19067,-0.95628 -2.04049,-0.94723 -0.84823,-0.009 -1.56316,0.44615 -2.03946,0.94723 -0.72353,0.75827 -1.17356,1.62098 -1.68087,2.20598 -0.52017,0.58983 -0.91133,0.8929 -1.6868,0.91041 v 2.41547 c 1.98541,0.0139 3.16055,-1.45677 3.86644,-2.49094 0.36978,-0.53248 0.68016,-0.99311 0.93813,-1.2509 0.27022,-0.26201 0.3901,-0.31453 0.60256,-0.32178 0.21405,0.007 0.3334,0.0604 0.60471,0.32178 0.39441,0.38457 0.86852,1.23702 1.56474,2.08041 0.68339,0.83796 1.77509,1.67773 3.23818,1.66143 1.98644,0.0139 3.16162,-1.45557 3.86694,-2.49094 0.36978,-0.53248 0.68017,-0.99311 0.93866,-1.2509 0.26969,-0.26201 0.39011,-0.31453 0.60254,-0.32359 0.21246,0.009 0.33287,0.0622 0.60312,0.32359 0.39656,0.38457 0.87013,1.23702 1.56636,2.08041 0.68339,0.83796 1.77453,1.67773 3.23815,1.66143 1.98594,0.0139 3.16164,-1.45557 3.86644,-2.49094 0.3687,-0.53248 0.68016,-0.99311 0.93864,-1.2509 0.26971,-0.26201 0.39012,-0.31453 0.60309,-0.32359 0.21301,0.009 0.33234,0.0622 0.60311,0.32359 0.39656,0.38457 0.86964,1.23702 1.56583,2.08041 0.68337,0.83796 1.77507,1.67773 3.23816,1.66143 1.98594,0.0139 3.16164,-1.45677 3.86697,-2.49094 0.36869,-0.53248 0.68016,-0.99311 0.93813,-1.2509 0.27022,-0.26201 0.38902,-0.31453 0.60306,-0.32359 0.21299,0.009 0.3329,0.0622 0.60312,0.32359 0.3955,0.38457 0.86855,1.23702 1.56477,2.08041 0.6775,0.83011 1.75578,1.66143 3.1975,1.66143 0.0134,0 0.0278,0 0.0417,0 v -2.41547 c -1.00126,-0.0133 -1.46683,-0.57655 -2.18819,-1.57389 z"
         id="path1055"
         style="fill:#0066ff;fill-opacity:1;stroke-width:0.568396" />
      <path
         d="m 320.25375,215.15472 c -0.34303,-0.48419 -0.69141,-1.0396 -1.18053,-1.5425 -0.47627,-0.50108 -1.19016,-0.95628 -2.03943,-0.94723 -0.84874,-0.009 -1.56369,0.44615 -2.04051,0.94723 -0.72351,0.75827 -1.17357,1.62098 -1.68035,2.20598 -0.51909,0.58983 -0.90974,0.8929 -1.68677,0.91041 -1.00072,-0.0133 -1.46577,-0.57655 -2.18821,-1.57389 -0.34303,-0.48419 -0.69087,-1.0396 -1.17999,-1.5425 -0.47521,-0.50108 -1.1907,-0.95628 -2.03944,-0.94844 -0.84873,-0.008 -1.56369,0.44736 -2.03889,0.94844 -0.72459,0.75827 -1.17357,1.62098 -1.68196,2.20598 -0.51856,0.58983 -0.90975,0.8929 -1.68678,0.91041 -1.00018,-0.0133 -1.46522,-0.57655 -2.18767,-1.57389 -0.34302,-0.48419 -0.6914,-1.0396 -1.17999,-1.5425 -0.47682,-0.50108 -1.1907,-0.95628 -2.03944,-0.94723 -0.8498,-0.009 -1.56369,0.44615 -2.03997,0.94723 -0.72351,0.75827 -1.17303,1.62098 -1.6814,2.20598 -0.51911,0.58983 -0.91031,0.8929 -1.68681,0.91041 -1.00069,-0.0133 -1.46574,-0.57655 -2.18764,-1.57389 -0.34303,-0.48419 -0.69195,-1.03839 -1.18053,-1.5425 -0.47522,-0.50108 -1.19016,-0.95628 -2.03891,-0.94723 -0.8498,-0.009 -1.5637,0.44615 -2.0405,0.94723 -0.72406,0.75827 -1.17303,1.62098 -1.68089,2.20598 -0.51962,0.58983 -0.91028,0.8929 -1.68678,0.91041 v 2.41547 c 1.98593,0.0139 3.16164,-1.45677 3.86588,-2.49094 0.36979,-0.53248 0.68016,-0.99311 0.93813,-1.2509 0.2713,-0.26201 0.39012,-0.31453 0.60416,-0.32178 0.21299,0.007 0.33286,0.0604 0.60311,0.32178 0.39546,0.38457 0.86854,1.23702 1.56478,2.08041 0.68337,0.83796 1.77506,1.67773 3.23919,1.66143 1.98486,0.0139 3.16058,-1.45557 3.86644,-2.49094 0.36925,-0.53248 0.67963,-0.99311 0.93757,-1.2509 0.27185,-0.26201 0.39012,-0.31453 0.60417,-0.32359 0.213,0.009 0.33233,0.0622 0.60312,0.32359 0.396,0.38457 0.86853,1.23702 1.56475,2.08041 0.68339,0.83796 1.77562,1.67773 3.23923,1.66143 1.98539,0.0139 3.16056,-1.45557 3.86642,-2.49094 0.36978,-0.53248 0.68017,-0.99311 0.93811,-1.2509 0.27025,-0.26201 0.39012,-0.31453 0.6031,-0.32359 0.21353,0.009 0.33287,0.0622 0.60418,0.32359 0.39547,0.38457 0.86854,1.23702 1.56476,2.08041 0.68338,0.83796 1.77508,1.67773 3.23923,1.66143 1.98539,0.0139 3.16056,-1.45677 3.86588,-2.49094 0.36979,-0.53248 0.6807,-0.99311 0.93864,-1.2509 0.26972,-0.26201 0.38959,-0.31453 0.60311,-0.32359 0.21245,0.009 0.33233,0.0622 0.60258,0.32359 0.39547,0.38457 0.87014,1.23702 1.56636,2.08041 0.67696,0.83011 1.75367,1.66143 3.19642,1.66143 0.0144,0 0.0284,0 0.0428,0 v -2.41547 c -1.00179,-0.0133 -1.46683,-0.57655 -2.18874,-1.57389 z"
         id="path1057"
         style="fill:#0066ff;fill-opacity:1;stroke-width:0.568396" />
      <path
         d="m 212.41044,215.15472 c -0.34409,-0.48419 -0.69191,-1.0396 -1.18105,-1.5425 -0.47575,-0.50108 -1.19068,-0.95628 -2.03946,-0.94723 -0.84979,-0.009 -1.56369,0.44615 -2.04047,0.94723 -0.72408,0.75827 -1.17308,1.62098 -1.68095,2.20598 -0.51959,0.58983 -0.91022,0.8929 -1.68677,0.91041 -1.00124,-0.0133 -1.46624,-0.57655 -2.18657,-1.57389 -0.34359,-0.48419 -0.69194,-1.03839 -1.18052,-1.5425 -0.47627,-0.50108 -1.19073,-0.95628 -2.03999,-0.94723 -0.84979,-0.009 -1.56369,0.44615 -2.04049,0.94723 -0.72462,0.75827 -1.17356,1.62098 -1.6814,2.20598 -0.51914,0.58983 -0.90977,0.8929 -1.6868,0.91041 v 2.41547 c 1.98647,0.0139 3.16217,-1.45677 3.86591,-2.49094 0.37084,-0.53248 0.68013,-0.99311 0.93972,-1.2509 0.26971,-0.26201 0.38904,-0.31453 0.60306,-0.32178 0.21299,0.007 0.33235,0.0604 0.60315,0.32178 0.39491,0.38457 0.86849,1.23702 1.56474,2.08041 0.68337,0.83796 1.77615,1.67773 3.23919,1.66143 1.98596,0.0139 3.16167,-1.45557 3.86593,-2.49094 0.36923,-0.53248 0.68017,-0.99311 0.93914,-1.2509 0.27027,-0.26201 0.38907,-0.31453 0.60312,-0.32359 0.21299,0.009 0.33285,0.0622 0.60312,0.32359 0.39547,0.38457 0.86852,1.23702 1.56474,2.08041 0.67749,0.83011 1.7558,1.66143 3.19752,1.66143 0.0135,0 0.0278,0 0.0417,0 v -2.41547 c -1.00073,-0.0133 -1.46574,-0.57655 -2.18659,-1.57389 z"
         id="path1059"
         style="fill:#0066ff;fill-opacity:1;stroke-width:0.568396" />
      <path
         d="m 351.01169,215.15472 c -0.34303,-0.48419 -0.69087,-1.0396 -1.17999,-1.5425 -0.47628,-0.50108 -1.19069,-0.95628 -2.03943,-0.94723 -0.84821,-0.009 -1.56369,0.44615 -2.0389,0.94723 -0.72405,0.75827 -1.17464,1.62098 -1.68143,2.20598 -0.51855,0.58983 -0.91081,0.8929 -1.68677,0.91041 -1.00019,-0.0133 -1.46523,-0.57655 -2.18767,-1.57389 -0.34303,-0.48419 -0.6914,-1.03839 -1.17999,-1.5425 -0.47681,-0.50108 -1.1907,-0.95628 -2.03943,-0.94723 -0.84928,-0.009 -1.56477,0.44615 -2.03997,0.94723 -0.72406,0.75827 -1.17411,1.62098 -1.68143,2.20598 -0.51909,0.58983 -0.91028,0.8929 -1.68677,0.91041 v 2.41547 c 1.98485,0.0139 3.16056,-1.45677 3.86642,-2.49094 0.36924,-0.53248 0.68016,-0.99311 0.93757,-1.2509 0.27078,-0.26201 0.39012,-0.31453 0.60418,-0.32178 0.21298,0.007 0.33232,0.0604 0.6031,0.32178 0.39601,0.38457 0.86854,1.23702 1.56476,2.08041 0.68338,0.83796 1.77561,1.67773 3.23923,1.66143 1.98539,0.0139 3.1611,-1.45557 3.86642,-2.49094 0.36978,-0.53248 0.68017,-0.99311 0.9381,-1.2509 0.27025,-0.26201 0.39013,-0.31453 0.60311,-0.32359 0.21353,0.009 0.33286,0.0622 0.60257,0.32359 0.39708,0.38457 0.87015,1.23702 1.56637,2.08041 0.67696,0.83011 1.7542,1.66143 3.19588,1.66143 0.0145,0 0.0284,0 0.0423,0 v -2.41547 c -1.00072,-0.0133 -1.46576,-0.57655 -2.18821,-1.57389 z"
         id="path1061"
         style="fill:#0066ff;fill-opacity:1;stroke-width:0.568396" />
    </g>
  </g>
</svg>
