<?xml version="1.0" encoding="UTF-8" standalone="no"?>
<!-- Created with Inkscape (http://www.inkscape.org/) -->

<svg
   width="180.12845mm"
   height="79.375mm"
   viewBox="0 0 180.12845 79.375"
   version="1.1"
   id="svg955"
   inkscape:version="1.1 (c68e22c387, 2021-05-23)"
   xmlns:inkscape="http://www.inkscape.org/namespaces/inkscape"
   xmlns:sodipodi="http://sodipodi.sourceforge.net/DTD/sodipodi-0.dtd"
   xmlns="http://www.w3.org/2000/svg"
   xmlns:svg="http://www.w3.org/2000/svg">
  <sodipodi:namedview
     id="namedview957"
     pagecolor="#ffffff"
     bordercolor="#666666"
     borderopacity="1.0"
     inkscape:pageshadow="2"
     inkscape:pageopacity="0.0"
     inkscape:pagecheckerboard="0"
     inkscape:document-units="mm"
     showgrid="false"
     inkscape:zoom="0.74118967"
     inkscape:cx="162.57647"
     inkscape:cy="-82.974712"
     inkscape:window-width="1920"
     inkscape:window-height="1017"
     inkscape:window-x="-8"
     inkscape:window-y="-8"
     inkscape:window-maximized="1"
     inkscape:current-layer="layer1" />
  <defs
     id="defs952" />
  <g
     inkscape:label="Layer 1"
     inkscape:groupmode="layer"
     id="layer1"
     transform="translate(-192.96597,-148.53598)">
    <path
       d="m 287.83507,168.95935 c 0.18351,-0.33762 0.35779,-0.69224 0.52142,-1.06817 0.36988,-0.8576 0.67582,-1.8045 0.91895,-2.83379 v -14.80583 h 19.30094 v 28.80737 h -19.30094 v -1.39572 c -0.46667,0.34194 -0.94747,0.6522 -1.44037,0.93048 v 1.9056 h 22.18168 v -31.6881 h -22.18168 z"
       id="path1893"
       style="fill:#0066ff;fill-opacity:1;stroke-width:0.288074"
       inkscape:export-filename="D:\UPRI-Assets\NOAH Assets\HazardLevel\Flood\flood-switch2.png"
       inkscape:export-xdpi="61.633842"
       inkscape:export-ydpi="61.633842" />
    <path
       d="m 290.71581,155.14881 v 2.18849 c 0.63117,-0.78068 1.59593,-1.27587 2.68629,-1.27587 l 0.0916,0.001 c 0.23103,0.006 0.45832,0.0343 0.6787,0.0838 v -0.9976 z"
       id="path1895"
       style="fill:#0066ff;fill-opacity:1;stroke-width:0.288074"
       inkscape:export-filename="D:\UPRI-Assets\NOAH Assets\HazardLevel\Flood\flood-switch2.png"
       inkscape:export-xdpi="61.633842"
       inkscape:export-ydpi="61.633842" />
    <rect
       x="299.93414"
       y="155.14883"
       width="7.2018418"
       height="17.28442"
       id="rect1897"
       style="fill:#0066ff;fill-opacity:1;stroke-width:0.288074"
       inkscape:export-filename="D:\UPRI-Assets\NOAH Assets\HazardLevel\Flood\flood-switch2.png"
       inkscape:export-xdpi="61.633842"
       inkscape:export-ydpi="61.633842" />
    <path
       d="m 298.4938,155.14881 h -3.45689 v 1.32341 c 0.32035,0.17227 0.6162,0.3938 0.87431,0.66545 0.63578,0.66948 0.97283,1.54609 0.9492,2.46937 -0.004,0.14893 -0.0144,0.29181 -0.0196,0.43902 h 0.78874 v 1.1523 h -0.84117 c -0.019,0.29297 -0.0475,0.57701 -0.0726,0.86422 h 1.778 z"
       id="path1899"
       style="fill:#0066ff;fill-opacity:1;stroke-width:0.288074"
       inkscape:export-filename="D:\UPRI-Assets\NOAH Assets\HazardLevel\Flood\flood-switch2.png"
       inkscape:export-xdpi="61.633842"
       inkscape:export-ydpi="61.633842" />
    <path
       d="m 298.4938,169.84057 v -6.91378 h -1.86067 c -0.28231,2.53362 -0.81784,4.82985 -1.59622,6.86596 v 0.0478 z m -2.59266,-2.01652 h 1.72844 v 1.1523 h -1.72844 z"
       id="path1901"
       style="fill:#0066ff;fill-opacity:1;stroke-width:0.288074"
       inkscape:export-filename="D:\UPRI-Assets\NOAH Assets\HazardLevel\Flood\flood-switch2.png"
       inkscape:export-xdpi="61.633842"
       inkscape:export-ydpi="61.633842" />
    <path
       d="m 294.1727,177.61856 v -5.85741 c -0.92529,1.831 -2.0822,3.40849 -3.45689,4.70482 v 1.15259 z m -2.59267,-2.01652 h 1.72844 v 1.15229 h -1.72844 z"
       id="path1903"
       style="fill:#0066ff;fill-opacity:1;stroke-width:0.288074"
       inkscape:export-filename="D:\UPRI-Assets\NOAH Assets\HazardLevel\Flood\flood-switch2.png"
       inkscape:export-xdpi="61.633842"
       inkscape:export-ydpi="61.633842" />
    <path
       d="m 295.03691,177.61856 h 3.45689 v -6.91377 h -3.45689 z m 0.86423,-2.01652 h 1.72844 v 1.15229 h -1.72844 z"
       id="path1905"
       style="fill:#0066ff;fill-opacity:1;stroke-width:0.288074"
       inkscape:export-filename="D:\UPRI-Assets\NOAH Assets\HazardLevel\Flood\flood-switch2.png"
       inkscape:export-xdpi="61.633842"
       inkscape:export-ydpi="61.633842" />
    <rect
       x="299.93414"
       y="173.29747"
       width="1.1522948"
       height="4.321105"
       id="rect1907"
       style="fill:#0066ff;fill-opacity:1;stroke-width:0.288074"
       inkscape:export-filename="D:\UPRI-Assets\NOAH Assets\HazardLevel\Flood\flood-switch2.png"
       inkscape:export-xdpi="61.633842"
       inkscape:export-ydpi="61.633842" />
    <rect
       x="301.95065"
       y="173.29747"
       width="1.1522948"
       height="4.321105"
       id="rect1909"
       style="fill:#0066ff;fill-opacity:1;stroke-width:0.288074"
       inkscape:export-filename="D:\UPRI-Assets\NOAH Assets\HazardLevel\Flood\flood-switch2.png"
       inkscape:export-xdpi="61.633842"
       inkscape:export-ydpi="61.633842" />
    <rect
       x="303.96716"
       y="173.29747"
       width="1.1522948"
       height="4.321105"
       id="rect1911"
       style="fill:#0066ff;fill-opacity:1;stroke-width:0.288074"
       inkscape:export-filename="D:\UPRI-Assets\NOAH Assets\HazardLevel\Flood\flood-switch2.png"
       inkscape:export-xdpi="61.633842"
       inkscape:export-ydpi="61.633842" />
    <rect
       x="305.98367"
       y="173.29747"
       width="1.1522948"
       height="4.321105"
       id="rect1913"
       style="fill:#0066ff;fill-opacity:1;stroke-width:0.288074"
       inkscape:export-filename="D:\UPRI-Assets\NOAH Assets\HazardLevel\Flood\flood-switch2.png"
       inkscape:export-xdpi="61.633842"
       inkscape:export-ydpi="61.633842" />
    <rect
       x="290.71576"
       y="151.69194"
       width="16.4202"
       height="2.3045895"
       id="rect1915"
       style="fill:#0066ff;fill-opacity:1;stroke-width:0.288074"
       inkscape:export-filename="D:\UPRI-Assets\NOAH Assets\HazardLevel\Flood\flood-switch2.png"
       inkscape:export-xdpi="61.633842"
       inkscape:export-ydpi="61.633842" />
    <path
       d="m 293.64581,170.17646 c 1.17217,-2.71826 1.94824,-6.18552 2.06261,-10.59938 0.0323,-1.27214 -0.97254,-2.33052 -2.24467,-2.36307 -1.27271,-0.0328 -2.33052,0.97196 -2.36307,2.24467 -0.10227,3.93998 -0.78788,6.80747 -1.68725,8.89226 -1.35884,3.12013 -3.1547,4.55416 -4.60486,5.33455 -0.72566,0.384 -1.36834,0.58623 -1.80622,0.68993 -0.2077,0.0501 -0.36672,0.0766 -0.46639,0.0902 h -11.01248 c -0.0331,0 -0.0654,0.004 -0.0979,0.005 -0.51824,0.005 -1.3865,0.1161 -2.37372,0.61417 -1.54955,0.7683 -3.22038,2.44892 -4.38909,5.42731 -1.18284,2.98962 -1.97705,7.31274 -1.9808,13.83992 0,1.68812 0.0542,3.52255 0.1714,5.51977 0.0715,1.22461 1.08748,2.17006 2.29854,2.17035 0.0452,0 0.0905,-0.003 0.13655,-0.004 1.27098,-0.0746 2.24035,-1.16497 2.16631,-2.43539 -0.11263,-1.91653 -0.16362,-3.66169 -0.16362,-5.25071 -0.01,-6.97541 1.00711,-10.89407 2.00643,-12.93939 v 43.21248 c 0,1.96754 1.59507,3.56145 3.56145,3.56145 1.96697,0 3.56204,-1.59391 3.56204,-3.56145 v -26.00468 h 1.33522 v 26.00468 c 0,1.96754 1.59506,3.56145 3.56146,3.56145 1.96697,0 3.56202,-1.59391 3.56202,-3.56145 v -45.9892 c 1.21942,-0.38574 2.81103,-1.1065 4.4277,-2.45612 1.59478,-1.33465 3.16996,-3.28577 4.33839,-6.00316 z"
       id="path1917"
       style="fill:#0066ff;fill-opacity:1;stroke-width:0.288074"
       inkscape:export-filename="D:\UPRI-Assets\NOAH Assets\HazardLevel\Flood\flood-switch2.png"
       inkscape:export-xdpi="61.633842"
       inkscape:export-ydpi="61.633842" />
    <circle
       cx="277.08817"
       cy="166.34222"
       r="6.481658"
       id="circle1919"
       style="fill:#0066ff;fill-opacity:1;stroke-width:0.288074"
       inkscape:export-filename="D:\UPRI-Assets\NOAH Assets\HazardLevel\Flood\flood-switch2.png"
       inkscape:export-xdpi="61.633842"
       inkscape:export-ydpi="61.633842" />
  </g>
</svg>
