<?xml version="1.0" encoding="UTF-8" standalone="no"?>
<!-- Created with Inkscape (http://www.inkscape.org/) -->

<svg
   width="84.260803mm"
   height="79.375mm"
   viewBox="0 0 84.260803 79.375"
   version="1.1"
   id="svg1162"
   inkscape:version="1.1 (c68e22c387, 2021-05-23)"
   sodipodi:docname="food.svg"
   xmlns:inkscape="http://www.inkscape.org/namespaces/inkscape"
   xmlns:sodipodi="http://sodipodi.sourceforge.net/DTD/sodipodi-0.dtd"
   xmlns="http://www.w3.org/2000/svg"
   xmlns:svg="http://www.w3.org/2000/svg">
  <sodipodi:namedview
     id="namedview1164"
     pagecolor="#ffffff"
     bordercolor="#666666"
     borderopacity="1.0"
     inkscape:pageshadow="2"
     inkscape:pageopacity="0.0"
     inkscape:pagecheckerboard="0"
     inkscape:document-units="mm"
     showgrid="false"
     inkscape:zoom="0.74118967"
     inkscape:cx="-174.71911"
     inkscape:cy="53.292701"
     inkscape:window-width="1920"
     inkscape:window-height="1017"
     inkscape:window-x="-8"
     inkscape:window-y="-8"
     inkscape:window-maximized="1"
     inkscape:current-layer="layer1" />
  <defs
     id="defs1159" />
  <g
     inkscape:label="Layer 1"
     inkscape:groupmode="layer"
     id="layer1"
     transform="translate(-151.47939,-134.37024)">
    <path
       class="fil0"
       d="m 172.5989,162.89417 h 33.93867 v 50.85107 h -28.94095 c 0.497,-0.75143 0.78566,-1.64572 0.78566,-2.60418 V 185.5939 c 0,-4.4362 -2.11903,-8.58966 -5.70372,-11.2916 -0.027,-0.0204 -0.0534,-0.0408 -0.0796,-0.0619 z m 51.3201,27.209 c 6.52856,0 11.82119,5.29263 11.82119,11.8212 0,6.52856 -5.29263,11.82087 -11.82119,11.82087 -6.52857,0 -11.82088,-5.29231 -11.82088,-11.82087 0,-6.52857 5.29231,-11.8212 11.82088,-11.8212 z m -6.35412,5.12905 c 0.5737,0 1.03877,0.46508 1.03877,1.03845 0,0.5737 -0.46507,1.03877 -1.03877,1.03877 -0.57338,0 -1.03845,-0.46507 -1.03845,-1.03877 0,-0.57337 0.46507,-1.03845 1.03845,-1.03845 z m 10.84923,14.50602 c 0.36437,0 0.65993,0.29558 0.65993,0.65993 0,0.36437 -0.29556,0.65961 -0.65993,0.65961 -0.36436,0 -0.6596,-0.29524 -0.6596,-0.65961 0,-0.36435 0.29524,-0.65993 0.6596,-0.65993 z m 4.98357,-8.36288 c 0.59344,0 1.07498,0.48121 1.07498,1.07498 0,0.59345 -0.48154,1.07499 -1.07498,1.07499 -0.59378,0 -1.07499,-0.48154 -1.07499,-1.07499 0,-0.59377 0.48121,-1.07498 1.07499,-1.07498 z m -11.77084,-1.97486 c 0.52894,0 0.95813,0.4292 0.95813,0.95847 0,0.52926 -0.42919,0.95846 -0.95813,0.95846 -0.52927,0 -0.95847,-0.4292 -0.95847,-0.95846 0,-0.52927 0.4292,-0.95847 0.95847,-0.95847 z m 4.38485,5.77746 c 0.47233,0 0.85544,0.38345 0.85544,0.85577 0,0.47265 -0.38311,0.85577 -0.85544,0.85577 -0.47265,0 -0.85578,-0.38312 -0.85578,-0.85577 0,-0.47232 0.38313,-0.85577 0.85578,-0.85577 z m -10.16527,0.36567 c 0.55328,0 1.00191,0.44863 1.00191,1.00191 0,0.5533 -0.44863,1.00225 -1.00191,1.00225 -0.5533,0 -1.00225,-0.44895 -1.00225,-1.00225 0,-0.55328 0.44895,-1.00191 1.00225,-1.00191 z m 9.85061,-10.18699 c 0,0.67441 -0.54704,1.22112 -1.22145,1.22112 -0.67409,0 -1.22112,-0.54671 -1.22112,-1.22112 0,-0.67442 0.54703,-1.22146 1.22112,-1.22146 0.67441,0 1.22145,0.54704 1.22145,1.22146 z m -66.25697,-37.81303 h 8.71967 c 0.85282,0 1.55027,0.69745 1.55027,1.54993 v 1.21521 c 0,0.18465 -0.15075,0.3354 -0.33507,0.3354 h -11.14974 c -0.18432,0 -0.33507,-0.15075 -0.33507,-0.3354 v -1.21521 c 0,-0.85248 0.69746,-1.54993 1.54994,-1.54993 z m 11.8574,17.64605 c 2.92807,2.2576 4.82328,5.79788 4.82328,9.75912 v 26.1327 c 0,1.46502 -1.19874,2.66376 -2.6641,2.66376 h -19.31349 c -1.46502,0 -2.66376,-1.19874 -2.66376,-2.66376 v -26.1327 c 0,-3.96158 1.89521,-7.50152 4.82294,-9.75912 1.57758,-1.21651 2.4202,-2.93069 2.4202,-4.92267 v -7.45049 h 10.15473 v 7.45049 c 0,1.99198 0.84294,3.70616 2.4202,4.92267 z m 2.2553,14.46226 h -19.50539 v 14.3184 h 19.50539 z m 8.37967,-50.89255 h 33.93867 l 3.3e-4,-3.43428 c 0,-0.52598 -0.39465,-0.95485 -0.87849,-0.95485 h -32.1817 c -0.48417,0 -0.87881,0.42887 -0.87881,0.95485 z m 43.56646,24.08115 -7.857,-19.96915 -9.52443,19.96915 v 50.90472 h 7.88826 c -3.80589,-2.55284 -6.311,-6.89424 -6.311,-11.8212 0,-7.85567 6.3686,-14.22427 14.2246,-14.22427 0.53388,0 1.06084,0.0302 1.57957,0.0878 z m -52.89999,-2.51565 h 33.93867 l 9.33386,-19.34245 h -33.939 z m 4.61854,-2.89942 h 27.49997 l 6.53547,-13.54328 h -27.49995 z m 11.40747,21.44997 c 5.03557,-1.08452 10.01683,2.02654 11.12637,6.94888 1.10954,4.92268 -2.07294,9.79236 -7.10819,10.87722 -5.03523,1.08485 -10.0165,-2.02654 -11.12637,-6.94889 -1.10954,-4.92268 2.07294,-9.79236 7.10819,-10.87721 z"
       id="path2892"
       style="clip-rule:evenodd;fill:#0066ff;fill-opacity:1;fill-rule:nonzero;stroke-width:0.329143;image-rendering:optimizeQuality;shape-rendering:geometricPrecision;text-rendering:geometricPrecision"
       inkscape:export-filename="D:\UPRI-NOAH\noah-frontend\src\assets\images\survival-kit\food.png"
       inkscape:export-xdpi="119.25"
       inkscape:export-ydpi="119.25" />
  </g>
</svg>
