<svg width="56" height="56" viewBox="0 0 56 56" fill="none" xmlns="http://www.w3.org/2000/svg">
    <path
        d="M28 1.5C13.3645 1.5 1.5 13.3645 1.5 28V53V54.5H3H28C42.6355 54.5 54.5 42.6355 54.5 28C54.5 13.3645 42.6355 1.5 28 1.5Z"
        fill="#0055FF" stroke="white" stroke-width="3" />
    <path
        d="M41.0427 42.4496C40.7926 42.2703 40.4912 42.177 40.1836 42.1836C39.8765 42.1851 39.5776 42.2824 39.3285 42.4619C39.0794 42.6414 38.8925 42.8942 38.7939 43.185C38.4696 44.1302 37.8715 44.9576 37.0755 45.5619C36.2796 46.1661 35.3218 46.5199 34.3242 46.5781C33.3254 46.5194 32.3666 46.1647 31.5701 45.5591C30.7736 44.9535 30.1754 44.1245 29.8517 43.1778C29.7555 42.8867 29.5693 42.6336 29.3201 42.4549C29.0709 42.2763 28.7714 42.1813 28.4648 42.1836C28.1578 42.1851 27.8589 42.2824 27.6097 42.4619C27.3606 42.6414 27.1737 42.8942 27.0751 43.185C26.7509 44.1302 26.1527 44.9576 25.3568 45.5619C24.5608 46.1661 23.6031 46.5199 22.6055 46.5781C21.6066 46.5194 20.6479 46.1647 19.8513 45.5591C19.0548 44.9535 18.4567 44.1245 18.133 43.1778C18.0344 42.8873 17.8471 42.6352 17.5976 42.4569C17.348 42.2785 17.0488 42.183 16.7421 42.1838C16.4354 42.1846 16.1367 42.2817 15.8881 42.4613C15.6394 42.6409 15.4535 42.894 15.3564 43.185C15.0321 44.1302 14.434 44.9576 13.638 45.5619C12.8421 46.1661 11.8843 46.5199 10.8867 46.5781C10.8867 46.5781 7.98434 46.6562 6.49217 46.5781C5 46.5 5.00001 49.5 6.49217 49.5078C7.98433 49.5156 10.8867 49.5078 10.8867 49.5078C12.0235 49.5179 13.1467 49.2595 14.1648 48.7536C15.183 48.2478 16.0674 47.5088 16.7461 46.5967C17.4317 47.5013 18.3176 48.2349 19.3341 48.7399C20.3507 49.245 21.4704 49.5078 22.6055 49.5078C23.7406 49.5078 24.8602 49.245 25.8768 48.7399C26.8934 48.2349 27.7792 47.5013 28.4648 46.5967C29.1505 47.5013 30.0363 48.2349 31.0529 48.7399C32.0694 49.245 33.1891 49.5078 34.3242 49.5078C35.4593 49.5078 36.579 49.245 37.5956 48.7399C38.6121 48.2349 39.4979 47.5013 40.1836 46.5967C40.8502 45.7012 42.2517 43.3162 41.0427 42.4496Z"
        fill="white" />
    <path
        d="M47.3782 27.4407L38.1744 10.4999C38.0835 10.3355 37.9501 10.1984 37.7882 10.1029C37.6264 10.0074 37.4419 9.95709 37.2539 9.95709C37.066 9.95709 36.8815 10.0074 36.7196 10.1029C36.5577 10.1984 36.4244 10.3355 36.3334 10.4999L27.1297 27.4407C27.0422 27.6012 26.9979 27.7818 27.0013 27.9646C27.0046 28.1474 27.0554 28.3262 27.1487 28.4834C27.242 28.6407 27.3746 28.771 27.5334 28.8615C27.6922 28.9521 27.8719 28.9998 28.0547 29H46.4531C46.636 28.9998 46.8156 28.9521 46.9745 28.8615C47.1333 28.771 47.2659 28.6407 47.3592 28.4834C47.4524 28.3262 47.5032 28.1474 47.5066 27.9646C47.5099 27.7818 47.4657 27.6012 47.3782 27.4407ZM36.1553 16.8164C36.1553 16.2641 36.603 15.8164 37.1553 15.8164H37.3526C37.9048 15.8164 38.3526 16.2641 38.3526 16.8164V20.6758C38.3526 21.2281 37.9048 21.6758 37.3526 21.6758H37.1553C36.603 21.6758 36.1553 21.2281 36.1553 20.6758V16.8164ZM37.2539 26.0703C36.9642 26.0703 36.681 25.9844 36.4401 25.8235C36.1992 25.6625 36.0115 25.4337 35.9006 25.166C35.7897 24.8984 35.7607 24.6039 35.8172 24.3197C35.8738 24.0355 36.0133 23.7745 36.2181 23.5697C36.423 23.3648 36.684 23.2253 36.9682 23.1688C37.2523 23.1123 37.5468 23.1413 37.8145 23.2521C38.0822 23.363 38.3109 23.5508 38.4719 23.7917C38.6329 24.0325 38.7188 24.3158 38.7188 24.6055C38.7188 24.994 38.5644 25.3666 38.2897 25.6413C38.015 25.916 37.6424 26.0703 37.2539 26.0703Z"
        fill="white" />
    <path
        d="M44.5781 36.3242C44.5781 36.3242 44.5781 33.2092 44.5781 31.9297C44.5781 30.6501 41.7103 30.9355 41.6484 31.9297C41.5864 32.9239 41.6484 36.3242 41.6484 36.3242H40.1835C39.1859 36.266 38.2282 35.9122 37.4322 35.308C36.6363 34.7037 36.0381 33.8763 35.7139 32.9311C35.6168 32.6401 35.4308 32.387 35.1822 32.2074C34.9336 32.0278 34.6348 31.9307 34.3281 31.9299C34.0214 31.9291 33.7222 32.0246 33.4727 32.203C33.2231 32.3813 33.0358 32.6335 32.9373 32.9239C32.6136 33.8707 32.0154 34.6996 31.2189 35.3052C30.4224 35.9108 29.4636 36.2655 28.4648 36.3242C27.4672 36.266 26.5094 35.9122 25.7135 35.308C24.9175 34.7037 24.3194 33.8763 23.9951 32.9311C23.8965 32.6403 23.7096 32.3875 23.4605 32.208C23.2114 32.0285 22.9125 31.9312 22.6054 31.9297C22.2988 31.9274 21.9993 32.0224 21.7501 32.201C21.5009 32.3797 21.3148 32.6328 21.2185 32.9239C20.8948 33.8707 20.2966 34.6996 19.5001 35.3052C18.7036 35.9108 17.7449 36.2655 16.746 36.3242C15.7804 36.2801 14.849 35.9531 14.0677 35.3839C13.2864 34.8147 12.6896 34.0284 12.3515 33.1228V23.2307L26.9999 11.8196C26.9999 11.8196 29.9199 14.4271 30.71 14.7135C31.5 15 33 13 32.1282 12.1035C31.2564 11.2069 27.8969 8.80552 27.8969 8.80552C27.6369 8.60248 27.3165 8.49219 26.9867 8.49219C26.6568 8.49219 26.3365 8.60248 26.0765 8.80552C26.0765 8.80552 5.76537 24.5535 5.02729 25.2198C4.28921 25.8862 5.49992 28 6.84765 27.5223C8.19538 27.0445 9.42182 25.5153 9.42182 25.5153V33.1142C9.15084 33.7723 8.75253 34.3704 8.24977 34.8741C7.74701 35.3778 7.75308 35.3839 6.49213 36.0496C5.23118 36.7152 5.5 39 6.49213 39.1016C7.48426 39.2031 9.80793 37.7683 10.8867 36.3428C11.5723 37.2474 12.4581 37.981 13.4747 38.4861C14.4912 38.9911 15.6109 39.2539 16.746 39.2539C17.8811 39.2539 19.0008 38.9911 20.0174 38.4861C21.0339 37.981 21.9197 37.2474 22.6054 36.3428C23.2911 37.2474 24.1769 37.981 25.1934 38.4861C26.21 38.9911 27.3297 39.2539 28.4648 39.2539C29.5999 39.2539 30.7196 38.9911 31.7361 38.4861C32.7527 37.981 33.6385 37.2474 34.3242 36.3428C35.0029 37.2549 35.8873 37.9939 36.9054 38.4997C37.9235 39.0056 39.0467 39.264 40.1835 39.2539C40.1835 39.2539 43.9999 39.5078 45.9999 39.2539C47.9999 39 49.1368 36.3428 47.5078 36.3242C45.8787 36.3056 44.5781 36.3242 44.5781 36.3242Z"
        fill="white" />
</svg>
    