<?xml version="1.0" encoding="UTF-8" standalone="no"?>
<!-- Created with Inkscape (http://www.inkscape.org/) -->

<svg
   width="79.417442mm"
   height="79.375mm"
   viewBox="0 0 79.417442 79.375001"
   version="1.1"
   id="svg1162"
   inkscape:version="1.1 (c68e22c387, 2021-05-23)"
   sodipodi:docname="flashlight.svg"
   xmlns:inkscape="http://www.inkscape.org/namespaces/inkscape"
   xmlns:sodipodi="http://sodipodi.sourceforge.net/DTD/sodipodi-0.dtd"
   xmlns="http://www.w3.org/2000/svg"
   xmlns:svg="http://www.w3.org/2000/svg">
  <sodipodi:namedview
     id="namedview1164"
     pagecolor="#ffffff"
     bordercolor="#666666"
     borderopacity="1.0"
     inkscape:pageshadow="2"
     inkscape:pageopacity="0.0"
     inkscape:pagecheckerboard="0"
     inkscape:document-units="mm"
     showgrid="false"
     inkscape:zoom="0.74118967"
     inkscape:cx="-282.65369"
     inkscape:cy="107.25999"
     inkscape:window-width="1920"
     inkscape:window-height="1017"
     inkscape:window-x="-8"
     inkscape:window-y="-8"
     inkscape:window-maximized="1"
     inkscape:current-layer="layer1" />
  <defs
     id="defs1159" />
  <g
     inkscape:label="Layer 1"
     inkscape:groupmode="layer"
     id="layer1"
     transform="translate(-413.04353,-245.50316)">
    <g
       id="g1819"
       transform="matrix(1.2781804,0,0,1.2781804,406.81318,239.11226)"
       style="fill:#0066ff;fill-opacity:1"
       inkscape:export-filename="D:\UPRI-NOAH\noah-frontend\src\assets\images\survival-kit\personal.png"
       inkscape:export-xdpi="463.51956"
       inkscape:export-ydpi="463.51956">
      <path
         d="m 36,49.2 c 3,0 5.6,-3.8 5.6,-6.9 0,-3.1 -2.5,-5.6 -5.6,-5.6 -3.1,0 -5.6,2.5 -5.6,5.6 0,3.1 2.6,6.9 5.6,6.9 z"
         id="path1809"
         style="fill:#0066ff;fill-opacity:1" />
      <path
         d="m 13.3,20.1 c 0,-2.2 1.8,-4 4,-4 h 37.4 c 2.2,0 4,1.8 4,4 v 1.3 h 3.7 v -7.2 c 0,-1.1 -0.9,-2 -2,-2 H 32.6 c -0.4,0 -0.7,-0.2 -0.9,-0.5 L 28.3,6 C 27.9,5.4 27.3,5 26.6,5 h -15 c -1.1,0 -2,0.9 -2,2 v 22.1 h 3.7 z"
         id="path1811"
         style="fill:#0066ff;fill-opacity:1" />
      <path
         d="m 40.1,53.5 -3.4,3.6 c -0.4,0.4 -1.1,0.4 -1.5,0 l -3.4,-3.6 c -3.7,0.2 -6.6,1 -6.6,4.6 v 3.3 h 21.4 v -3.3 c 0.1,-3.6 -2.9,-4.4 -6.5,-4.6 z"
         id="path1813"
         style="fill:#0066ff;fill-opacity:1" />
      <path
         d="m 17.3,18.1 c -1.1,0 -2,0.9 -2,2 v 9.1 h 27.3 l 3.5,-5.8 c 0.7,-1.2 2,-2 3.4,-2 h 7.1 v -1.3 c 0,-1.1 -0.9,-2 -2,-2 z m 22.6,6.5 H 20.1 c -0.6,0 -1,-0.4 -1,-1 0,-0.6 0.4,-1 1,-1 h 19.8 c 0.6,0 1,0.4 1,1 0,0.6 -0.5,1 -1,1 z"
         id="path1815"
         style="fill:#0066ff;fill-opacity:1" />
      <path
         d="m 65,23.4 c 0,0 -14.4,0 -15.5,0 -0.7,0 -1.4,0.4 -1.7,1 L 44,30.7 c -0.2,0.3 -0.5,0.5 -0.9,0.5 -35,0 -29.1,0 -36.2,0 -1.2,0 -2.2,1.1 -2,2.3 l 4.6,31.9 c 0.1,1 1,1.7 2,1.7 h 48.8 c 1,0 1.9,-0.8 2,-1.8 L 67,25.6 c 0.1,-1.2 -0.8,-2.2 -2,-2.2 z M 36,34.7 c 4.2,0 7.6,3.4 7.6,7.6 0,4.1 -3.3,8.9 -7.6,8.9 -4.3,0 -7.6,-4.8 -7.6,-8.9 0,-4.2 3.4,-7.6 7.6,-7.6 z m 12.7,27.8 c 0,0.6 -0.4,1 -1,1 H 24.3 c -0.6,0 -1,-0.4 -1,-1 v -4.3 c 0,-6 5.8,-6.4 8.3,-6.6 0.6,0 1,-0.1 1.4,0.3 l 3,3.1 3,-3.1 c 0.4,-0.4 0.7,-0.3 1.3,-0.3 2.1,0.1 8.4,0.4 8.4,6.6 z"
         id="path1817"
         style="fill:#0066ff;fill-opacity:1" />
    </g>
  </g>
</svg>
