<?xml version="1.0" encoding="UTF-8" standalone="no"?>
<!-- Created with Inkscape (http://www.inkscape.org/) -->

<svg
   width="74.364067mm"
   height="79.375mm"
   viewBox="0 0 74.364067 79.375"
   version="1.1"
   id="svg1162"
   inkscape:version="1.1 (c68e22c387, 2021-05-23)"
   xmlns:inkscape="http://www.inkscape.org/namespaces/inkscape"
   xmlns:sodipodi="http://sodipodi.sourceforge.net/DTD/sodipodi-0.dtd"
   xmlns="http://www.w3.org/2000/svg"
   xmlns:svg="http://www.w3.org/2000/svg">
  <sodipodi:namedview
     id="namedview1164"
     pagecolor="#ffffff"
     bordercolor="#666666"
     borderopacity="1.0"
     inkscape:pageshadow="2"
     inkscape:pageopacity="0.0"
     inkscape:pagecheckerboard="0"
     inkscape:document-units="mm"
     showgrid="false"
     inkscape:zoom="0.74118967"
     inkscape:cx="-135.59282"
     inkscape:cy="355.50954"
     inkscape:window-width="1920"
     inkscape:window-height="1017"
     inkscape:window-x="-8"
     inkscape:window-y="-8"
     inkscape:window-maximized="1"
     inkscape:current-layer="layer1" />
  <defs
     id="defs1159" />
  <g
     inkscape:label="Layer 1"
     inkscape:groupmode="layer"
     id="layer1"
     transform="translate(-141.08163,-54.541203)">
    <path
       d="M 212.59689,86.910818 V 86.34106 c 0,-0.569764 -0.16025,-1.103917 -0.48074,-1.584654 l -2.36807,-3.543209 -2.36808,3.561014 c -0.32049,0.462932 -0.48073,1.014891 -0.48073,1.584648 v 0.569765 c 0,1.566844 1.28196,2.848809 2.84881,2.848809 1.56685,0 2.84881,-1.299765 2.84881,-2.866615 z"
       id="path1001"
       style="fill:#0066ff;fill-opacity:1;stroke-width:0.17805"
       inkscape:export-filename="D:\UPRI-NOAH\noah-frontend\src\assets\images\survival-kit\water.png"
       inkscape:export-xdpi="64.588928"
       inkscape:export-ydpi="64.588928" />
    <path
       d="m 214.96496,108.98911 -2.36807,-3.56102 -2.36807,3.56102 c -0.32049,0.46293 -0.48074,1.01488 -0.48074,1.58465 v 0.56976 c 0,1.56685 1.28196,2.84881 2.84881,2.84881 1.56685,0 2.84881,-1.28196 2.84881,-2.84881 v -0.56976 c 0,-0.56977 -0.16025,-1.12172 -0.48074,-1.58465 z"
       id="path1003"
       style="fill:#0066ff;fill-opacity:1;stroke-width:0.17805"
       inkscape:export-filename="D:\UPRI-NOAH\noah-frontend\src\assets\images\survival-kit\water.png"
       inkscape:export-xdpi="64.588928"
       inkscape:export-ydpi="64.588928" />
    <path
       d="m 199.77724,123.94537 -2.36807,3.56101 c -0.32049,0.46293 -0.48074,1.01489 -0.48074,1.58465 v 0.56976 c 0,1.56685 1.28196,2.84881 2.84881,2.84881 1.56685,0 2.84881,-1.28196 2.84881,-2.84881 v -0.56976 c 0,-0.56976 -0.16025,-1.10391 -0.48074,-1.58465 z"
       id="path1005"
       style="fill:#0066ff;fill-opacity:1;stroke-width:0.17805"
       inkscape:export-filename="D:\UPRI-NOAH\noah-frontend\src\assets\images\survival-kit\water.png"
       inkscape:export-xdpi="64.588928"
       inkscape:export-ydpi="64.588928" />
    <rect
       x="158.46947"
       y="126.79417"
       width="11.395244"
       height="7.1220279"
       id="rect1007"
       style="fill:#0066ff;fill-opacity:1;stroke-width:0.17805"
       inkscape:export-filename="D:\UPRI-NOAH\noah-frontend\src\assets\images\survival-kit\water.png"
       inkscape:export-xdpi="64.588928"
       inkscape:export-ydpi="64.588928" />
    <path
       d="m 151.00915,78.880733 2.01197,-0.676592 c 1.49563,-0.498543 2.29686,-2.100999 1.79832,-3.596625 -0.39171,-1.157329 -1.47782,-1.940752 -2.68856,-1.940752 h -1.95856 l -0.30269,-1.477821 c -0.92586,-4.540292 1.94075,-8.99156 6.46324,-10.006449 l 5.14566,-1.19294 c 2.68857,-0.605372 4.78957,-2.74198 5.35933,-5.448351 l -15.77529,3.578819 c -6.81934,1.549041 -11.14597,8.297162 -9.70376,15.134309 l 0.28488,1.353185 c 1.4066,6.641292 6.08933,12.107447 12.42794,14.528934 z"
       id="path1009"
       style="fill:#0066ff;fill-opacity:1;stroke-width:0.17805"
       inkscape:export-filename="D:\UPRI-NOAH\noah-frontend\src\assets\images\survival-kit\water.png"
       inkscape:export-xdpi="64.588928"
       inkscape:export-ydpi="64.588928" />
    <path
       d="m 162.13732,62.767145 -5.14566,1.19294 c -2.70637,0.605372 -4.57591,3.098082 -4.41566,5.875673 3.13369,0.249271 5.46615,2.991251 5.21689,6.124944 -0.16025,2.047583 -1.4066,3.845895 -3.27614,4.718343 l 3.72127,12.427937 11.09255,6.783735 -2.06539,-11.341831 c -0.26707,-1.531238 0.73001,-2.991251 2.24344,-3.311743 l 2.72418,-0.551957 c 0.76561,-0.160246 1.26416,-0.908059 1.12172,-1.673676 0,-0.03561 -0.0178,-0.07122 -0.0356,-0.106831 l -2.36807,-8.314968 4.14858,-1.388795 -6.48105,-3.881506 -2.19002,-8.724484 c -1.22855,1.0505 -2.70637,1.798313 -4.29102,2.172219 z m 1.24636,8.332773 -1.28197,-2.546125 2.84882,-1.424405 1.28196,2.546124 z"
       id="path1011"
       style="fill:#0066ff;fill-opacity:1;stroke-width:0.17805"
       inkscape:export-filename="D:\UPRI-NOAH\noah-frontend\src\assets\images\survival-kit\water.png"
       inkscape:export-xdpi="64.588928"
       inkscape:export-ydpi="64.588928" />
    <path
       d="M 173.76403,105.92663 157.27654,95.848967 c -4.73615,5.003223 -7.3713,11.644513 -7.3535,18.535073 v 19.53216 h 5.69763 v -7.12202 h -1.42441 v -14.24406 h 2.84882 v 11.39525 h 14.24405 v -11.39525 h 2.84881 v 14.24406 h -1.42441 v 7.12202 h 8.54644 v -14.63577 c -0.0178,-5.44835 -2.84881,-10.50498 -7.49594,-13.3538 z"
       id="path1013"
       style="fill:#0066ff;fill-opacity:1;stroke-width:0.17805"
       inkscape:export-filename="D:\UPRI-NOAH\noah-frontend\src\assets\images\survival-kit\water.png"
       inkscape:export-xdpi="64.588928"
       inkscape:export-ydpi="64.588928" />
    <path
       d="m 202.34117,100.8878 -5.02103,-22.113898 -1.62026,0.534153 c -1.38879,0.462932 -2.88442,-0.284881 -3.34735,-1.673677 -0.24927,-0.747813 -1.0505,-1.15733 -1.79832,-0.908058 -0.0712,0.01781 -0.12463,0.05341 -0.17804,0.07122 l -0.78343,0.391712 c -0.58756,0.284881 -0.89026,0.943668 -0.74781,1.566846 l 3.22272,14.991867 c 0.3561,1.655874 -0.30269,3.365161 -1.67368,4.344441 l 4.36224,12.000614 2.79539,-0.87245 c 3.4898,-1.06831 5.5908,-4.70054 4.78957,-8.33277 z"
       id="path1015"
       style="fill:#0066ff;fill-opacity:1;stroke-width:0.17805"
       inkscape:export-filename="D:\UPRI-NOAH\noah-frontend\src\assets\images\survival-kit\water.png"
       inkscape:export-xdpi="64.588928"
       inkscape:export-ydpi="64.588928" />
    <path
       d="m 173.15866,102.20537 2.08319,1.28197 c 3.81029,2.35027 6.64129,5.9825 7.99448,10.23791 l 8.7601,-2.74198 -4.32664,-11.875978 z"
       id="path1017"
       style="fill:#0066ff;fill-opacity:1;stroke-width:0.17805"
       inkscape:export-filename="D:\UPRI-NOAH\noah-frontend\src\assets\images\survival-kit\water.png"
       inkscape:export-xdpi="64.588928"
       inkscape:export-ydpi="64.588928" />
    <path
       d="m 186.86857,70.138444 c 0.3561,0.195855 0.78342,0.213661 1.15733,0.07122 l 6.01811,-2.261243 c 0.67659,-0.249272 1.05049,-0.979279 0.89025,-1.673677 l -0.42732,-1.744897 -8.79571,2.937837 0.44513,1.762702 c 0.089,0.391711 0.3383,0.730007 0.71221,0.908058 z"
       id="path1019"
       style="fill:#0066ff;fill-opacity:1;stroke-width:0.17805"
       inkscape:export-filename="D:\UPRI-NOAH\noah-frontend\src\assets\images\survival-kit\water.png"
       inkscape:export-xdpi="64.588928"
       inkscape:export-ydpi="64.588928" />
    <path
       d="m 175.27746,79.32586 3.5076,-1.175135 2.38588,2.385879 c 0.3383,0.338297 0.81903,0.480737 1.28197,0.391712 l 3.72126,-0.747813 -0.17805,-0.801228 c -0.40952,-1.905142 0.51634,-3.845895 2.26124,-4.718344 l 0.78342,-0.391711 c 2.1188,-1.050499 4.68273,-0.195856 5.73323,1.905143 0.0534,0.124635 0.10683,0.24927 0.16025,0.373906 l 2.90223,-0.961474 15.95334,-6.124944 c 0.7122,-0.267076 1.08611,-1.050499 0.83684,-1.780507 L 212.11615,60.1498 c -0.24927,-0.747813 -1.0505,-1.15733 -1.79831,-0.908059 l -13.14014,4.380048 0.48073,1.958557 c 0.53416,2.100998 -0.60537,4.273217 -2.65295,5.038835 l -6.01811,2.261244 c -2.20783,0.836838 -4.66493,-0.284881 -5.50177,-2.49271 -0.0534,-0.160246 -0.10683,-0.302686 -0.14244,-0.462932 l -0.39171,-1.549041 -2.77759,0.925864 c -0.42732,0.14244 -0.76562,0.480736 -0.90806,0.908058 l -0.90806,2.706371 v 2.225633 l -3.95273,1.317576 z"
       id="path1021"
       style="fill:#0066ff;fill-opacity:1;stroke-width:0.17805"
       inkscape:export-filename="D:\UPRI-NOAH\noah-frontend\src\assets\images\survival-kit\water.png"
       inkscape:export-xdpi="64.588928"
       inkscape:export-ydpi="64.588928" />
  </g>
</svg>
